{"glyphs":{"0":{"ha":1381,"x_min":67,"x_max":1289,"o":"m 1210 15 l 1222 85 l 1289 85 q 1267 36 1289 57 q 1210 15 1246 15 l 143 15 l 133 85 l 1210 85 l 1210 15 m 1210 867 l 143 867 l 143 935 l 1210 935 l 1210 867 m 133 96 l 67 96 l 67 513 l 133 513 l 133 96 m 1289 96 l 1222 96 l 1222 513 l 1289 513 l 1289 96 m 133 524 l 67 524 l 67 854 l 133 854 l 133 524 m 1289 524 l 1222 524 l 1222 854 l 1289 854 l 1289 524 m 133 15 q 88 36 108 15 q 67 85 67 57 l 133 85 l 133 15 m 1222 867 l 1222 935 q 1269 914 1249 935 q 1289 867 1289 893 l 1222 867 m 133 867 l 67 867 q 88 914 67 893 q 133 935 108 935 l 133 867 z "},"1":{"ha":218,"x_min":67,"x_max":133,"o":"m 133 867 l 67 867 q 88 914 67 893 q 133 935 108 935 l 133 867 m 133 524 l 67 524 l 67 854 l 133 854 l 133 524 m 133 96 l 67 96 l 67 513 l 133 513 l 133 96 m 133 15 q 88 36 108 15 q 67 85 67 57 l 133 85 l 133 15 z "},"2":{"ha":1381,"x_min":67,"x_max":1289,"o":"m 1210 15 l 1222 85 l 1289 85 q 1267 36 1289 57 q 1210 15 1246 15 l 143 15 l 133 85 l 1210 85 l 1210 15 m 1210 443 l 143 443 l 143 513 l 1210 513 l 1210 443 m 1210 867 l 143 867 l 143 935 l 1210 935 l 1210 867 m 133 96 l 67 96 l 67 431 l 133 431 l 133 96 m 1289 524 l 1222 524 l 1222 854 l 1289 854 l 1289 524 m 1289 513 q 1269 464 1289 485 q 1222 443 1249 443 l 1222 513 l 1289 513 m 133 443 l 67 443 q 88 492 67 471 q 133 513 108 513 l 133 443 m 133 15 q 88 36 108 15 q 67 85 67 57 l 133 85 l 133 15 m 1222 867 l 1222 935 q 1269 914 1249 935 q 1289 867 1289 893 l 1222 867 m 133 867 l 67 867 q 88 914 67 893 q 133 935 108 935 l 133 867 z "},"3":{"ha":1381,"x_min":67,"x_max":1289,"o":"m 1210 15 l 1222 85 l 1289 85 q 1267 36 1289 57 q 1210 15 1246 15 l 143 15 l 133 85 l 1210 85 l 1210 15 m 1210 443 l 143 443 l 143 513 l 1210 513 l 1210 443 m 1210 867 l 143 867 l 143 935 l 1210 935 l 1210 867 m 1289 96 l 1222 96 l 1222 513 l 1289 513 l 1289 96 m 1289 524 l 1222 524 l 1222 854 l 1289 854 l 1289 524 m 133 15 q 88 36 108 15 q 67 85 67 57 l 133 85 l 133 15 m 1222 867 l 1222 935 q 1269 914 1249 935 q 1289 867 1289 893 l 1222 867 m 133 867 l 67 867 q 88 914 67 893 q 133 935 108 935 l 133 867 z "},"4":{"ha":1381,"x_min":67,"x_max":1289,"o":"m 1222 867 l 1222 935 q 1269 914 1249 935 q 1289 867 1289 893 l 1222 867 m 1289 524 l 1222 524 l 1222 854 l 1289 854 l 1289 524 m 1289 96 l 1222 96 l 1222 513 l 1289 513 l 1289 96 m 1289 85 q 1269 36 1289 57 q 1222 15 1249 15 l 1222 85 l 1289 85 m 1210 443 l 143 443 l 143 513 l 1210 513 l 1210 443 m 133 867 l 67 867 q 88 914 67 893 q 133 935 108 935 l 133 867 m 133 524 l 67 524 l 67 854 l 133 854 l 133 524 m 133 443 q 88 464 108 443 q 67 513 67 485 l 133 513 l 133 443 z "},"5":{"ha":1381,"x_min":67,"x_max":1289,"o":"m 1210 15 l 1222 85 l 1289 85 q 1267 36 1289 57 q 1210 15 1246 15 l 143 15 l 133 85 l 1210 85 l 1210 15 m 1210 443 l 143 443 l 143 513 l 1210 513 l 1210 443 m 1210 867 l 143 867 l 143 935 l 1210 935 l 1210 867 m 1289 96 l 1222 96 l 1222 428 l 1289 428 l 1289 96 m 133 524 l 67 524 l 67 854 l 133 854 l 133 524 m 1222 443 l 1222 513 q 1269 492 1249 513 q 1289 443 1289 471 l 1222 443 m 133 443 q 88 464 108 443 q 67 513 67 485 l 133 513 l 133 443 m 133 15 q 88 36 108 15 q 67 85 67 57 l 133 85 l 133 15 m 1222 867 l 1222 935 q 1269 914 1249 935 q 1289 867 1289 893 l 1222 867 m 133 867 l 67 867 q 88 914 67 893 q 133 935 108 935 l 133 867 z "},"6":{"ha":1381,"x_min":67,"x_max":1289,"o":"m 1210 15 l 1222 85 l 1289 85 q 1267 36 1289 57 q 1210 15 1246 15 l 143 15 l 133 85 l 1210 85 l 1210 15 m 1210 443 l 143 443 l 143 513 l 1210 513 l 1210 443 m 1210 867 l 143 867 l 143 935 l 1210 935 l 1210 867 m 133 96 l 67 96 l 67 513 l 133 513 l 133 96 m 1289 96 l 1222 96 l 1222 431 l 1289 431 l 1289 96 m 133 524 l 67 524 l 67 854 l 133 854 l 133 524 m 1222 443 l 1222 513 q 1269 492 1249 513 q 1289 443 1289 471 l 1222 443 m 133 15 q 88 36 108 15 q 67 85 67 57 l 133 85 l 133 15 m 1222 867 l 1222 935 q 1269 914 1249 935 q 1289 867 1289 893 l 1222 867 m 133 867 l 67 867 q 88 914 67 893 q 133 935 108 935 l 133 867 z "},"7":{"ha":1381,"x_min":67,"x_max":1210,"o":"m 1210 867 l 143 867 l 143 935 l 1210 935 l 1210 867 m 1210 822 l 185 96 l 143 96 l 143 153 l 1103 854 l 1210 854 l 1210 822 m 133 867 l 67 867 q 88 914 67 893 q 133 935 108 935 l 133 867 z "},"8":{"ha":1381,"x_min":67,"x_max":1289,"o":"m 1210 15 l 1222 85 l 1289 85 q 1267 36 1289 57 q 1210 15 1246 15 l 143 15 l 133 85 l 1210 85 l 1210 15 m 1210 443 l 143 443 l 143 513 l 1210 513 l 1210 443 m 1210 867 l 143 867 l 143 935 l 1210 935 l 1210 867 m 133 96 l 67 96 l 67 513 l 133 513 l 133 96 m 1289 96 l 1222 96 l 1222 513 l 1289 513 l 1289 96 m 133 524 l 67 524 l 67 854 l 133 854 l 133 524 m 1289 524 l 1222 524 l 1222 854 l 1289 854 l 1289 524 m 133 15 q 88 36 108 15 q 67 85 67 57 l 133 85 l 133 15 m 1222 867 l 1222 935 q 1269 914 1249 935 q 1289 867 1289 893 l 1222 867 m 133 867 l 67 867 q 88 914 67 893 q 133 935 108 935 l 133 867 z "},"9":{"ha":1381,"x_min":67,"x_max":1289,"o":"m 1222 867 l 1222 935 q 1269 914 1249 935 q 1289 867 1289 893 l 1222 867 m 1289 524 l 1222 524 l 1222 854 l 1289 854 l 1289 524 m 1289 96 l 1222 96 l 1222 513 l 1289 513 l 1289 96 m 1210 867 l 143 867 l 143 935 l 1210 935 l 1210 867 m 1289 85 q 1267 36 1289 57 q 1210 15 1246 15 l 1222 85 l 1289 85 m 1210 443 l 143 443 l 143 513 l 1210 513 l 1210 443 m 133 867 l 67 867 q 88 914 67 893 q 133 935 108 935 l 133 867 m 133 524 l 67 524 l 67 854 l 133 854 l 133 524 m 133 443 q 88 464 108 443 q 67 513 67 485 l 133 513 l 133 443 z "}," ":{"ha":364,"x_min":0,"x_max":0,"o":""},"!":{"ha":229,"x_min":67,"x_max":133,"o":"m 133 867 l 67 867 q 88 914 67 893 q 133 935 108 935 l 133 867 m 133 524 l 67 524 l 67 854 l 133 854 l 133 524 m 133 15 q 88 36 108 15 q 67 85 67 57 l 133 85 l 133 15 z "},"\"":{"ha":350,"x_min":67,"x_max":272,"o":"m 204 867 l 204 935 q 251 914 229 935 q 272 867 272 893 l 204 867 m 133 867 l 67 867 q 88 914 67 893 q 133 935 108 935 l 133 867 m 272 524 l 204 524 l 204 854 l 272 854 l 272 524 m 133 524 l 67 524 l 67 854 l 133 854 l 133 524 z "},"#":{"ha":1381,"x_min":143,"x_max":1210,"o":"m 443 99 l 378 99 l 378 356 l 143 356 l 143 426 l 1210 426 l 1210 356 l 378 356 l 443 344 l 443 99 m 1210 528 l 143 528 l 143 596 l 1210 596 l 1210 528 m 992 611 l 924 611 l 924 857 l 992 857 l 992 611 m 992 99 l 924 99 l 924 344 l 992 344 l 992 99 m 443 611 l 378 611 l 378 857 l 443 857 l 443 611 z "},"$":{"ha":1381,"x_min":67,"x_max":1289,"o":"m 1210 15 l 1222 85 l 1289 85 q 1267 36 1289 57 q 1210 15 1246 15 l 143 15 l 133 85 l 1210 85 l 1210 15 m 1210 443 l 143 443 l 143 513 l 1210 513 l 1210 443 m 1210 867 l 143 867 l 143 935 l 1210 935 l 1210 867 m 992 524 l 924 524 l 924 857 l 992 857 l 992 524 m 992 99 l 924 99 l 924 428 l 992 428 l 992 99 m 1289 96 l 1222 96 l 1222 428 l 1289 428 l 1289 96 m 133 524 l 67 524 l 67 854 l 133 854 l 133 524 m 443 524 l 378 524 l 378 857 l 443 857 l 443 524 m 443 99 l 378 99 l 378 428 l 443 428 l 443 99 m 1222 443 l 1222 513 q 1269 492 1249 513 q 1289 443 1289 471 l 1222 443 m 133 15 q 88 36 108 15 q 67 85 67 57 l 133 85 l 133 15 m 133 443 q 88 464 108 443 q 67 513 67 485 l 133 513 l 133 443 m 1222 867 l 1222 935 q 1269 914 1249 935 q 1289 867 1289 893 l 1222 867 m 133 867 l 67 867 q 88 914 67 893 q 133 935 108 935 l 133 867 z "},"%":{"ha":1381,"x_min":67,"x_max":1286,"o":"m 1286 515 q 1266 467 1286 488 q 1221 446 1246 446 l 1221 515 l 1286 515 m 1210 822 l 185 524 l 143 524 l 143 582 l 1103 854 l 1210 854 l 1210 822 m 133 867 l 67 867 q 88 914 67 893 q 133 935 108 935 l 133 867 z "},"&":{"ha":1381,"x_min":67,"x_max":1289,"o":"m 1210 15 l 1222 85 l 1289 85 q 1267 36 1289 57 q 1210 15 1246 15 l 143 15 l 133 85 l 1210 85 l 1210 15 m 1210 867 l 143 867 l 143 935 l 1210 935 l 1210 867 m 1210 822 l 185 524 l 143 524 l 143 582 l 1103 854 l 1210 854 l 1210 822 m 1210 96 l 1169 96 l 143 394 l 143 426 l 253 426 l 1210 153 l 1210 96 m 1289 96 l 1222 96 l 1222 513 l 1289 513 l 1289 96 m 133 96 l 67 96 l 67 513 l 133 513 l 133 96 m 133 524 l 67 524 l 67 854 l 133 854 l 133 524 m 133 15 q 88 36 108 15 q 67 85 67 57 l 133 85 l 133 15 m 133 867 l 67 867 q 88 914 67 893 q 133 935 108 935 l 133 867 z "},"'":{"ha":208,"x_min":67,"x_max":133,"o":"m 133 867 l 67 867 q 88 914 67 893 q 133 935 108 935 l 133 867 m 133 524 l 67 524 l 67 854 l 133 854 l 133 524 z "},"(":{"ha":733,"x_min":67,"x_max":672,"o":"m 672 867 l 143 867 l 143 935 l 672 935 l 672 867 m 133 867 l 67 867 q 88 914 67 893 q 133 935 108 935 l 133 867 m 133 524 l 67 524 l 67 854 l 133 854 l 133 524 m 672 15 l 143 15 l 143 85 l 672 85 l 672 15 m 133 96 l 67 96 l 67 513 l 133 513 l 133 96 m 133 15 q 88 36 108 15 q 67 85 67 57 l 133 85 l 133 15 z "},")":{"ha":733,"x_min":61,"x_max":667,"o":"m 599 867 l 599 935 q 646 914 625 935 q 667 867 667 893 l 599 867 m 667 524 l 599 524 l 599 854 l 667 854 l 667 524 m 589 867 l 61 867 l 61 935 l 589 935 l 589 867 m 667 96 l 599 96 l 599 513 l 667 513 l 667 96 m 667 85 q 646 36 667 57 q 599 15 625 15 l 599 85 l 667 85 m 589 15 l 61 15 l 61 85 l 589 85 l 589 15 z "},"*":{"ha":1381,"x_min":143,"x_max":1210,"o":"m 1210 524 l 1169 524 l 707 658 l 707 524 l 642 524 l 642 657 l 185 524 l 143 524 l 143 582 l 564 700 l 143 822 l 143 854 l 253 854 l 642 743 l 642 854 l 707 854 l 707 740 l 1103 854 l 1210 854 l 1210 822 l 790 700 l 1210 582 l 1210 524 z "},"+":{"ha":1381,"x_min":143,"x_max":1210,"o":"m 707 528 l 642 528 l 642 857 l 707 857 l 707 528 m 1210 443 l 143 443 l 143 513 l 1210 513 l 1210 443 m 707 99 l 642 99 l 642 428 l 707 428 l 707 99 z "},",":{"ha":204,"x_min":67,"x_max":133,"o":"m 133 96 l 67 96 l 67 183 l 133 183 l 133 96 m 133 15 q 88 36 108 15 q 67 85 67 57 l 133 85 l 133 15 z "},"-":{"ha":1243,"x_min":131,"x_max":1089,"o":"m 1089 443 l 131 443 l 131 513 l 1089 513 l 1089 443 z "},".":{"ha":219,"x_min":67,"x_max":133,"o":"m 133 15 q 88 36 108 15 q 67 85 67 57 l 133 85 l 133 15 z "},"/":{"ha":1381,"x_min":143,"x_max":1210,"o":"m 1210 822 l 185 524 l 143 524 l 143 582 l 1103 854 l 1210 854 l 1210 822 z "},":":{"ha":219,"x_min":67,"x_max":133,"o":"m 133 867 l 67 867 q 88 914 67 893 q 133 935 108 935 l 133 867 m 133 15 q 88 36 108 15 q 67 85 67 57 l 133 85 l 133 15 z "},";":{"ha":213,"x_min":67,"x_max":133,"o":"m 133 867 l 67 867 q 88 914 67 893 q 133 935 108 935 l 133 867 m 133 96 l 67 96 l 67 199 l 133 199 l 133 96 m 133 15 q 88 36 108 15 q 67 85 67 57 l 133 85 l 133 15 z "},"<":{"ha":1381,"x_min":143,"x_max":1210,"o":"m 1210 822 l 185 524 l 143 524 l 143 582 l 1103 854 l 1210 854 l 1210 822 m 1210 96 l 1169 96 l 143 394 l 143 426 l 253 426 l 1210 153 l 1210 96 z "},"=":{"ha":1381,"x_min":143,"x_max":1207,"o":"m 1207 528 l 143 528 l 143 596 l 1207 596 l 1207 528 m 1207 356 l 143 356 l 143 426 l 1207 426 l 1207 356 z "},">":{"ha":1381,"x_min":143,"x_max":1210,"o":"m 1210 524 l 1169 524 l 143 822 l 143 854 l 253 854 l 1210 582 l 1210 524 m 1210 394 l 185 96 l 143 96 l 143 153 l 1103 426 l 1210 426 l 1210 394 z "},"?":{"ha":1381,"x_min":67,"x_max":1289,"o":"m 1222 867 l 1222 935 q 1269 914 1249 935 q 1289 867 1289 893 l 1222 867 m 1289 524 l 1222 524 l 1222 854 l 1289 854 l 1289 524 m 1289 513 q 1269 464 1289 485 q 1222 443 1249 443 l 1222 513 l 1289 513 m 1210 867 l 143 867 l 143 935 l 1210 935 l 1210 867 m 1210 443 l 143 443 l 143 513 l 1210 513 l 1210 443 m 133 867 l 67 867 q 88 914 67 893 q 133 935 108 935 l 133 867 m 133 443 l 67 443 q 88 492 67 471 q 133 513 108 513 l 133 443 m 133 96 l 67 96 l 67 426 l 133 426 l 133 96 m 133 15 q 88 36 108 15 q 67 85 67 57 l 133 85 l 133 15 z "},"@":{"ha":1381,"x_min":67,"x_max":1289,"o":"m 1222 867 l 1222 935 q 1269 914 1249 935 q 1289 867 1289 893 l 1222 867 m 1289 524 l 1222 524 l 1222 854 l 1289 854 l 1289 524 m 1210 867 l 143 867 l 143 935 l 1210 935 l 1210 867 m 786 543 l 719 543 l 719 667 l 786 667 l 786 543 m 1210 443 l 143 443 l 143 513 l 1210 513 l 1210 443 m 707 686 l 185 524 l 143 524 l 143 582 l 600 718 l 707 718 l 707 686 m 133 867 l 67 867 q 88 914 67 893 q 133 935 108 935 l 133 867 m 133 731 l 67 731 l 67 854 l 133 854 l 133 731 z "},"A":{"ha":1381,"x_min":67,"x_max":1289,"o":"m 1222 867 l 1222 935 q 1269 914 1249 935 q 1289 867 1289 893 l 1222 867 m 1289 524 l 1222 524 l 1222 854 l 1289 854 l 1289 524 m 1289 96 l 1222 96 l 1222 513 l 1289 513 l 1289 96 m 1210 867 l 143 867 l 143 935 l 1210 935 l 1210 867 m 1289 85 q 1267 36 1289 57 q 1210 15 1246 15 l 1222 85 l 1289 85 m 1210 443 l 143 443 l 143 513 l 1210 513 l 1210 443 m 133 867 l 67 867 q 88 914 67 893 q 133 935 108 935 l 133 867 m 133 524 l 67 524 l 67 854 l 133 854 l 133 524 m 133 96 l 67 96 l 67 513 l 133 513 l 133 96 m 133 15 q 88 36 108 15 q 67 85 67 57 l 133 85 l 133 15 z "},"B":{"ha":1381,"x_min":67,"x_max":1289,"o":"m 1210 15 l 143 15 l 143 85 l 1210 85 l 1210 15 m 1210 443 l 143 443 l 143 513 l 1210 513 l 1210 443 m 1210 867 l 143 867 l 143 935 l 1210 935 l 1210 867 m 133 96 l 67 96 l 67 513 l 133 513 l 133 96 m 1289 96 l 1222 96 l 1222 431 l 1289 431 l 1289 96 m 1289 854 l 994 524 l 928 524 l 1222 854 l 1289 854 m 133 524 l 67 524 l 67 854 l 133 854 l 133 524 m 1289 85 q 1272 36 1289 57 q 1222 15 1254 15 l 1222 85 l 1289 85 m 1222 443 l 1222 513 q 1269 492 1249 513 q 1289 443 1289 471 l 1222 443 m 133 15 q 88 36 108 15 q 67 85 67 57 l 133 85 l 133 15 m 1222 867 l 1222 935 q 1269 914 1249 935 q 1289 867 1289 893 l 1222 867 m 133 867 l 67 867 q 88 914 67 893 q 133 935 108 935 l 133 867 z "},"C":{"ha":1381,"x_min":67,"x_max":1289,"o":"m 1210 867 l 143 867 l 143 935 l 1210 935 l 1210 867 m 133 96 l 67 96 l 67 513 l 133 513 l 133 96 m 133 524 l 67 524 l 67 854 l 133 854 l 133 524 m 1222 867 l 1222 935 q 1269 914 1249 935 q 1289 867 1289 893 l 1222 867 m 133 867 l 67 867 q 88 914 67 893 q 133 935 108 935 l 133 867 m 1210 15 l 143 15 l 143 85 l 1210 85 l 1210 15 m 1289 85 q 1272 36 1289 57 q 1222 15 1254 15 l 1222 85 l 1289 85 m 133 15 q 88 36 108 15 q 67 85 67 57 l 133 85 l 133 15 z "},"D":{"ha":1381,"x_min":67,"x_max":1289,"o":"m 1210 15 l 143 15 l 143 85 l 1210 85 l 1210 15 m 1210 867 l 143 867 l 143 935 l 1210 935 l 1210 867 m 133 96 l 67 96 l 67 513 l 133 513 l 133 96 m 1289 96 l 1222 96 l 1222 513 l 1289 513 l 1289 96 m 133 524 l 67 524 l 67 854 l 133 854 l 133 524 m 1289 524 l 1222 524 l 1222 854 l 1289 854 l 1289 524 m 133 15 l 67 15 l 67 85 l 133 85 l 133 15 m 133 867 l 67 867 l 67 935 l 133 935 l 133 867 m 1289 85 q 1269 37 1289 57 q 1222 15 1250 17 l 1222 85 l 1289 85 m 1222 867 l 1222 935 q 1269 914 1249 935 q 1289 867 1289 893 l 1222 867 z "},"E":{"ha":1381,"x_min":67,"x_max":1289,"o":"m 1210 443 l 143 443 l 143 513 l 1210 513 l 1210 443 m 1210 867 l 143 867 l 143 935 l 1210 935 l 1210 867 m 133 96 l 67 96 l 67 513 l 133 513 l 133 96 m 133 524 l 67 524 l 67 854 l 133 854 l 133 524 m 1222 867 l 1222 935 q 1269 914 1249 935 q 1289 867 1289 893 l 1222 867 m 133 867 l 67 867 q 88 914 67 893 q 133 935 108 935 l 133 867 m 1210 15 l 143 15 l 143 85 l 1210 85 l 1210 15 m 1289 85 q 1272 36 1289 57 q 1222 15 1254 15 l 1222 85 l 1289 85 m 133 15 q 88 36 108 15 q 67 85 67 57 l 133 85 l 133 15 z "},"F":{"ha":1381,"x_min":67,"x_max":1289,"o":"m 1222 867 l 1222 935 q 1269 914 1249 935 q 1289 867 1289 893 l 1222 867 m 1210 867 l 143 867 l 143 935 l 1210 935 l 1210 867 m 1210 443 l 143 443 l 143 513 l 1210 513 l 1210 443 m 133 867 l 67 867 q 88 914 67 893 q 133 935 108 935 l 133 867 m 133 524 l 67 524 l 67 854 l 133 854 l 133 524 m 133 96 l 67 96 l 67 513 l 133 513 l 133 96 m 133 15 q 88 36 108 15 q 67 85 67 57 l 133 85 l 133 15 z "},"G":{"ha":1381,"x_min":67,"x_max":1289,"o":"m 1210 867 l 143 867 l 143 935 l 1210 935 l 1210 867 m 133 96 l 67 96 l 67 513 l 133 513 l 133 96 m 1289 96 l 1222 96 l 1222 513 l 1289 513 l 1289 96 m 133 524 l 67 524 l 67 854 l 133 854 l 133 524 m 1222 867 l 1222 935 q 1269 914 1249 935 q 1289 867 1289 893 l 1222 867 m 133 867 l 67 867 q 88 914 67 893 q 133 935 108 935 l 133 867 m 1210 15 l 143 15 l 143 85 l 1210 85 l 1210 15 m 1289 85 q 1272 36 1289 57 q 1222 15 1254 15 l 1222 85 l 1289 85 m 133 15 q 88 36 108 15 q 67 85 67 57 l 133 85 l 133 15 z "},"H":{"ha":1381,"x_min":67,"x_max":1289,"o":"m 1222 867 l 1222 935 q 1269 914 1249 935 q 1289 867 1289 893 l 1222 867 m 1289 524 l 1222 524 l 1222 854 l 1289 854 l 1289 524 m 1289 96 l 1222 96 l 1222 513 l 1289 513 l 1289 96 m 1289 85 q 1269 36 1289 57 q 1222 15 1249 15 l 1222 85 l 1289 85 m 1210 443 l 143 443 l 143 513 l 1210 513 l 1210 443 m 133 867 l 67 867 q 88 914 67 893 q 133 935 108 935 l 133 867 m 133 524 l 67 524 l 67 854 l 133 854 l 133 524 m 133 96 l 67 96 l 67 513 l 133 513 l 133 96 m 133 15 q 88 36 108 15 q 67 85 67 57 l 133 85 l 133 15 z "},"I":{"ha":218,"x_min":67,"x_max":133,"o":"m 133 867 l 67 867 q 88 914 67 893 q 133 935 108 935 l 133 867 m 133 524 l 67 524 l 67 854 l 133 854 l 133 524 m 133 96 l 67 96 l 67 513 l 133 513 l 133 96 m 133 15 q 88 36 108 15 q 67 85 67 57 l 133 85 l 133 15 z "},"J":{"ha":1381,"x_min":67,"x_max":1289,"o":"m 1222 867 l 1222 935 q 1269 914 1249 935 q 1289 867 1289 893 l 1222 867 m 1289 524 l 1222 524 l 1222 854 l 1289 854 l 1289 524 m 1289 96 l 1222 96 l 1222 513 l 1289 513 l 1289 96 m 1289 85 q 1269 36 1289 57 q 1222 15 1249 15 l 1222 85 l 1289 85 m 1210 15 l 143 15 l 143 85 l 1210 85 l 1210 15 m 133 15 q 88 36 108 15 q 67 85 67 57 l 133 85 l 133 15 z "},"K":{"ha":1381,"x_min":67,"x_max":1289,"o":"m 1222 443 l 1222 513 q 1269 492 1249 513 q 1289 443 1289 471 l 1222 443 m 1289 96 l 1222 96 l 1222 428 l 1289 428 l 1289 96 m 1289 85 q 1269 36 1289 57 q 1222 15 1249 15 l 1222 85 l 1289 85 m 1210 822 l 185 524 l 143 524 l 143 582 l 1103 854 l 1210 854 l 1210 822 m 1210 443 l 143 443 l 143 513 l 1210 513 l 1210 443 m 133 867 l 67 867 q 88 914 67 893 q 133 935 108 935 l 133 867 m 133 524 l 67 524 l 67 854 l 133 854 l 133 524 m 133 96 l 67 96 l 67 513 l 133 513 l 133 96 m 133 15 q 88 36 108 15 q 67 85 67 57 l 133 85 l 133 15 z "},"L":{"ha":1381,"x_min":67,"x_max":1289,"o":"m 133 867 l 67 867 q 88 914 67 893 q 133 935 108 935 l 133 867 m 133 524 l 67 524 l 67 854 l 133 854 l 133 524 m 133 96 l 67 96 l 67 513 l 133 513 l 133 96 m 1210 15 l 143 15 l 143 85 l 1210 85 l 1210 15 m 1289 85 q 1272 36 1289 57 q 1222 15 1254 15 l 1222 85 l 1289 85 m 133 15 q 88 36 108 15 q 67 85 67 57 l 133 85 l 133 15 z "},"M":{"ha":1754,"x_min":67,"x_max":1667,"o":"m 1600 867 l 1600 935 q 1645 914 1624 935 q 1667 867 1667 893 l 1600 867 m 1667 524 l 1600 524 l 1600 854 l 1667 854 l 1667 524 m 1586 867 l 828 867 l 828 935 l 1586 935 l 1586 867 m 1667 96 l 1600 96 l 1600 513 l 1667 513 l 1667 96 m 1667 85 q 1646 36 1667 57 q 1600 15 1625 15 l 1600 85 l 1667 85 m 893 524 l 828 524 l 828 854 l 893 854 l 893 524 m 814 867 l 143 867 l 143 935 l 814 935 l 814 867 m 893 96 l 828 96 l 828 513 l 893 513 l 893 96 m 133 867 l 67 867 q 88 914 67 893 q 133 935 108 935 l 133 867 m 893 85 q 873 36 893 57 q 828 15 853 15 l 828 85 l 893 85 m 133 524 l 67 524 l 67 854 l 133 854 l 133 524 m 133 96 l 67 96 l 67 513 l 133 513 l 133 96 m 133 15 q 88 36 108 15 q 67 85 67 57 l 133 85 l 133 15 z "},"N":{"ha":1381,"x_min":67,"x_max":1289,"o":"m 1222 867 l 1222 935 q 1269 914 1249 935 q 1289 867 1289 893 l 1222 867 m 1289 524 l 1222 524 l 1222 854 l 1289 854 l 1289 524 m 1289 96 l 1222 96 l 1222 513 l 1289 513 l 1289 96 m 1210 867 l 143 867 l 143 935 l 1210 935 l 1210 867 m 1289 85 q 1267 36 1289 57 q 1210 15 1246 15 l 1222 85 l 1289 85 m 133 867 l 67 867 q 88 914 67 893 q 133 935 108 935 l 133 867 m 133 524 l 67 524 l 67 854 l 133 854 l 133 524 m 133 96 l 67 96 l 67 513 l 133 513 l 133 96 m 133 15 q 88 36 108 15 q 67 85 67 57 l 133 85 l 133 15 z "},"O":{"ha":1381,"x_min":67,"x_max":1289,"o":"m 1210 867 l 143 867 l 143 935 l 1210 935 l 1210 867 m 133 96 l 67 96 l 67 513 l 133 513 l 133 96 m 1289 96 l 1222 96 l 1222 513 l 1289 513 l 1289 96 m 133 524 l 67 524 l 67 854 l 133 854 l 133 524 m 1289 524 l 1222 524 l 1222 854 l 1289 854 l 1289 524 m 1222 867 l 1222 935 q 1269 914 1249 935 q 1289 867 1289 893 l 1222 867 m 133 867 l 67 867 q 88 914 67 893 q 133 935 108 935 l 133 867 m 1210 15 l 143 15 l 143 85 l 1210 85 l 1210 15 m 1289 85 q 1272 36 1289 57 q 1222 15 1254 15 l 1222 85 l 1289 85 m 133 15 q 88 36 108 15 q 67 85 67 57 l 133 85 l 133 15 z "},"P":{"ha":1381,"x_min":67,"x_max":1289,"o":"m 1222 867 l 1222 935 q 1269 914 1249 935 q 1289 867 1289 893 l 1222 867 m 1289 524 l 1222 524 l 1222 854 l 1289 854 l 1289 524 m 1289 513 q 1269 464 1289 485 q 1222 443 1249 443 l 1222 513 l 1289 513 m 1210 867 l 143 867 l 143 935 l 1210 935 l 1210 867 m 1210 443 l 143 443 l 143 513 l 1210 513 l 1210 443 m 133 867 l 67 867 q 88 914 67 893 q 133 935 108 935 l 133 867 m 133 524 l 67 524 l 67 854 l 133 854 l 133 524 m 133 96 l 67 96 l 67 513 l 133 513 l 133 96 m 133 15 q 88 36 108 15 q 67 85 67 57 l 133 85 l 133 15 z "},"Q":{"ha":1381,"x_min":67,"x_max":1289,"o":"m 1210 867 l 143 867 l 143 935 l 1210 935 l 1210 867 m 1210 96 l 1169 96 l 143 394 l 143 426 l 253 426 l 1210 153 l 1210 96 m 133 96 l 67 96 l 67 513 l 133 513 l 133 96 m 1289 96 l 1222 96 l 1222 513 l 1289 513 l 1289 96 m 133 524 l 67 524 l 67 854 l 133 854 l 133 524 m 1289 524 l 1222 524 l 1222 854 l 1289 854 l 1289 524 m 1222 867 l 1222 935 q 1269 914 1249 935 q 1289 867 1289 893 l 1222 867 m 133 867 l 67 867 q 88 914 67 893 q 133 935 108 935 l 133 867 m 1210 15 l 143 15 l 143 85 l 1210 85 l 1210 15 m 1289 85 q 1272 36 1289 57 q 1222 15 1254 15 l 1222 85 l 1289 85 m 133 15 q 88 36 108 15 q 67 85 67 57 l 133 85 l 133 15 z "},"R":{"ha":1381,"x_min":67,"x_max":1289,"o":"m 1210 96 l 1169 96 l 143 394 l 143 426 l 253 443 l 143 443 l 143 513 l 1210 513 l 1210 443 l 253 443 l 1210 153 l 1210 96 m 1210 867 l 143 867 l 143 935 l 1210 935 l 1210 867 m 133 96 l 67 96 l 67 513 l 133 513 l 133 96 m 1289 524 l 1222 524 l 1222 854 l 1289 854 l 1289 524 m 133 524 l 67 524 l 67 854 l 133 854 l 133 524 m 1289 513 q 1269 464 1289 485 q 1222 443 1249 443 l 1222 513 l 1289 513 m 133 15 q 88 36 108 15 q 67 85 67 57 l 133 85 l 133 15 m 1222 867 l 1222 935 q 1269 914 1249 935 q 1289 867 1289 893 l 1222 867 m 133 867 l 67 867 q 88 914 67 893 q 133 935 108 935 l 133 867 z "},"S":{"ha":1381,"x_min":67,"x_max":1289,"o":"m 1210 443 l 143 443 l 143 513 l 1210 513 l 1210 443 m 1210 867 l 143 867 l 143 935 l 1210 935 l 1210 867 m 1289 96 l 1222 96 l 1222 428 l 1289 428 l 1289 96 m 133 524 l 67 524 l 67 854 l 133 854 l 133 524 m 1222 443 l 1222 513 q 1269 492 1249 513 q 1289 443 1289 471 l 1222 443 m 133 443 q 88 464 108 443 q 67 513 67 485 l 133 513 l 133 443 m 1222 867 l 1222 935 q 1269 914 1249 935 q 1289 867 1289 893 l 1222 867 m 133 867 l 67 867 q 88 914 67 893 q 133 935 108 935 l 133 867 m 1210 15 l 143 15 l 143 85 l 1210 85 l 1210 15 m 1289 85 q 1272 36 1289 57 q 1222 15 1254 15 l 1222 85 l 1289 85 m 133 15 q 88 36 108 15 q 67 85 67 57 l 133 85 l 133 15 z "},"T":{"ha":1381,"x_min":67,"x_max":1289,"o":"m 1222 867 l 1222 935 q 1269 914 1249 935 q 1289 867 1289 893 l 1222 867 m 1210 867 l 143 867 l 143 935 l 1210 935 l 1210 867 m 707 524 l 642 524 l 642 854 l 707 854 l 707 524 m 707 96 l 642 96 l 642 513 l 707 513 l 707 96 m 133 867 l 67 867 q 88 914 67 893 q 133 935 108 935 l 133 867 m 707 15 q 663 36 683 15 q 642 85 642 57 l 707 85 l 707 15 z "},"U":{"ha":1381,"x_min":67,"x_max":1289,"o":"m 1222 867 l 1222 935 q 1269 914 1249 935 q 1289 867 1289 893 l 1222 867 m 1289 524 l 1222 524 l 1222 854 l 1289 854 l 1289 524 m 1289 96 l 1222 96 l 1222 513 l 1289 513 l 1289 96 m 133 867 l 67 867 q 88 914 67 893 q 133 935 108 935 l 133 867 m 133 524 l 67 524 l 67 854 l 133 854 l 133 524 m 133 96 l 67 96 l 67 513 l 133 513 l 133 96 m 1210 15 l 143 15 l 143 85 l 1210 85 l 1210 15 m 1289 85 q 1272 36 1289 57 q 1222 15 1254 15 l 1222 85 l 1289 85 m 133 15 q 88 36 108 15 q 67 85 67 57 l 133 85 l 133 15 z "},"V":{"ha":1381,"x_min":67,"x_max":1289,"o":"m 1222 867 l 1222 935 q 1269 914 1249 935 q 1289 867 1289 893 l 1222 867 m 1289 524 l 1222 524 l 1222 854 l 1289 854 l 1289 524 m 1289 458 l 186 15 l 147 15 l 147 85 l 1222 513 l 1289 513 l 1289 458 m 133 867 l 67 867 q 88 914 67 893 q 133 935 108 935 l 133 867 m 133 524 l 67 524 l 67 854 l 133 854 l 133 524 m 133 96 l 67 96 l 67 513 l 133 513 l 133 96 m 133 15 q 88 36 108 15 q 67 85 67 57 l 133 85 l 133 15 z "},"W":{"ha":1754,"x_min":64,"x_max":1664,"o":"m 1599 869 l 1599 938 q 1643 917 1622 938 q 1664 869 1664 897 l 1599 869 m 1664 440 l 1599 440 l 1599 857 l 1664 857 l 1664 440 m 1664 99 l 1599 99 l 1599 428 l 1664 428 l 1664 99 m 1664 88 q 1643 38 1664 58 q 1599 17 1622 17 l 1599 88 l 1664 88 m 825 869 l 825 938 q 872 917 851 938 q 892 869 892 897 l 825 869 m 892 440 l 825 440 l 825 857 l 892 857 l 892 440 m 1585 17 l 825 17 l 825 88 l 1585 88 l 1585 17 m 892 99 l 825 99 l 825 428 l 892 428 l 892 99 m 132 869 l 64 869 q 85 917 64 897 q 132 938 106 938 l 132 869 m 132 440 l 64 440 l 64 857 l 132 857 l 132 440 m 811 17 l 143 17 l 143 88 l 811 88 l 811 17 m 132 99 l 64 99 l 64 428 l 132 428 l 132 99 m 132 17 q 85 38 106 17 q 64 88 64 60 l 132 88 l 132 17 z "},"X":{"ha":1381,"x_min":143,"x_max":1210,"o":"m 1210 96 l 1169 96 l 676 444 l 185 96 l 143 96 l 143 153 l 615 488 l 143 822 l 143 854 l 218 854 l 675 531 l 1132 854 l 1210 854 l 1210 822 l 736 488 l 1210 153 l 1210 96 z "},"Y":{"ha":1381,"x_min":67,"x_max":1289,"o":"m 1222 867 l 1222 935 q 1269 914 1249 935 q 1289 867 1289 893 l 1222 867 m 1289 524 l 1222 524 l 1222 854 l 1289 854 l 1289 524 m 1289 96 l 1222 96 l 1222 513 l 1289 513 l 1289 96 m 1289 85 q 1269 36 1289 57 q 1222 15 1249 15 l 1222 85 l 1289 85 m 1210 443 l 143 443 l 143 513 l 1210 513 l 1210 443 m 133 867 l 67 867 q 88 914 67 893 q 133 935 108 935 l 133 867 m 133 524 l 67 524 l 67 854 l 133 854 l 133 524 m 133 443 q 88 464 108 443 q 67 513 67 485 l 133 513 l 133 443 z "},"Z":{"ha":1381,"x_min":67,"x_max":1289,"o":"m 1210 867 l 143 867 l 143 935 l 1210 935 l 1210 867 m 1210 822 l 143 504 l 143 575 l 1103 854 l 1210 854 l 1210 822 m 133 96 l 67 96 l 67 492 l 133 492 l 133 96 m 133 504 l 67 504 q 88 554 67 533 q 133 575 108 575 l 133 504 m 133 867 l 67 867 q 88 914 67 893 q 133 935 108 935 l 133 867 m 1210 15 l 143 15 l 143 85 l 1210 85 l 1210 15 m 1289 85 q 1272 36 1289 57 q 1222 15 1254 15 l 1222 85 l 1289 85 m 133 15 q 88 36 108 15 q 67 85 67 57 l 133 85 l 133 15 z "},"[":{"ha":733,"x_min":67,"x_max":672,"o":"m 672 867 l 143 867 l 143 935 l 672 935 l 672 867 m 133 867 l 67 867 q 88 914 67 893 q 133 935 108 935 l 133 867 m 133 524 l 67 524 l 67 854 l 133 854 l 133 524 m 672 15 l 143 15 l 143 85 l 672 85 l 672 15 m 133 96 l 67 96 l 67 513 l 133 513 l 133 96 m 133 15 q 88 36 108 15 q 67 85 67 57 l 133 85 l 133 15 z "},"\\":{"ha":1381,"x_min":122,"x_max":1188,"o":"m 1188 524 l 1147 524 l 122 822 l 122 854 l 229 854 l 1188 582 l 1188 524 z "},"]":{"ha":733,"x_min":61,"x_max":667,"o":"m 599 867 l 599 935 q 646 914 625 935 q 667 867 667 893 l 599 867 m 667 524 l 599 524 l 599 854 l 667 854 l 667 524 m 589 867 l 61 867 l 61 935 l 589 935 l 589 867 m 667 96 l 599 96 l 599 513 l 667 513 l 667 96 m 667 85 q 646 36 667 57 q 599 15 625 15 l 599 85 l 667 85 m 589 15 l 61 15 l 61 85 l 589 85 l 589 15 z "},"_":{"ha":1381,"x_min":67,"x_max":1289,"o":"m 1289 85 q 1269 36 1289 57 q 1222 15 1249 15 l 1222 85 l 1289 85 m 1210 15 l 143 15 l 143 85 l 1210 85 l 1210 15 m 133 15 q 88 36 108 15 q 67 85 67 57 l 133 85 l 133 15 z "},"`":{"ha":554,"x_min":288,"x_max":463,"o":"m 463 890 l 397 890 l 288 1038 l 353 1038 l 463 890 z "},"a":{"ha":1381,"x_min":143,"x_max":1289,"o":"m 1289 96 l 1222 96 l 1222 513 l 1289 513 l 1289 96 m 1289 85 q 1269 36 1289 57 q 1222 15 1249 15 l 1222 85 l 1289 85 m 1210 443 l 143 443 l 143 513 l 1210 513 l 1210 443 m 1210 394 l 143 99 l 143 168 l 1103 426 l 1210 426 l 1210 394 m 1210 15 l 143 15 l 143 85 l 1210 85 l 1210 15 z "},"b":{"ha":1381,"x_min":67,"x_max":1289,"o":"m 1222 443 l 1222 513 q 1269 492 1249 513 q 1289 443 1289 471 l 1222 443 m 1289 96 l 1222 96 l 1222 428 l 1289 428 l 1289 96 m 1289 85 q 1269 36 1289 57 q 1222 15 1249 15 l 1222 85 l 1289 85 m 1210 443 l 143 443 l 143 513 l 1210 513 l 1210 443 m 133 867 l 67 867 q 88 914 67 893 q 133 935 108 935 l 133 867 m 1210 15 l 143 15 l 143 85 l 1210 85 l 1210 15 m 133 524 l 67 524 l 67 854 l 133 854 l 133 524 m 133 96 l 67 96 l 67 513 l 133 513 l 133 96 m 133 15 q 88 36 108 15 q 67 85 67 57 l 133 85 l 133 15 z "},"c":{"ha":1381,"x_min":67,"x_max":1289,"o":"m 1222 443 l 1222 513 q 1269 492 1249 513 q 1289 443 1289 471 l 1222 443 m 1289 85 q 1269 36 1289 57 q 1222 15 1249 15 l 1222 85 l 1289 85 m 1210 443 l 143 443 l 143 513 l 1210 513 l 1210 443 m 1210 15 l 143 15 l 143 85 l 1210 85 l 1210 15 m 133 443 l 67 443 q 88 492 67 471 q 133 513 108 513 l 133 443 m 133 96 l 67 96 l 67 431 l 133 431 l 133 96 m 133 15 q 88 36 108 15 q 67 85 67 57 l 133 85 l 133 15 z "},"d":{"ha":1381,"x_min":67,"x_max":1289,"o":"m 1222 867 l 1222 935 q 1269 914 1249 935 q 1289 867 1289 893 l 1222 867 m 1289 524 l 1222 524 l 1222 854 l 1289 854 l 1289 524 m 1289 96 l 1222 96 l 1222 513 l 1289 513 l 1289 96 m 1289 85 q 1269 36 1289 57 q 1222 15 1249 15 l 1222 85 l 1289 85 m 1210 443 l 143 443 l 143 513 l 1210 513 l 1210 443 m 1210 15 l 143 15 l 143 85 l 1210 85 l 1210 15 m 133 443 l 67 443 q 88 492 67 471 q 133 513 108 513 l 133 443 m 133 96 l 67 96 l 67 431 l 133 431 l 133 96 m 133 15 q 88 36 108 15 q 67 85 67 57 l 133 85 l 133 15 z "},"e":{"ha":1381,"x_min":67,"x_max":1289,"o":"m 1289 85 q 1269 36 1289 57 q 1222 15 1249 15 l 1222 85 l 1289 85 m 1210 443 l 143 443 l 143 513 l 1210 513 l 1210 443 m 1210 394 l 185 96 l 143 96 l 143 153 l 1103 426 l 1210 426 l 1210 394 m 1210 15 l 143 15 l 143 85 l 1210 85 l 1210 15 m 133 443 l 67 443 q 88 492 67 471 q 133 513 108 513 l 133 443 m 133 96 l 67 96 l 67 426 l 133 426 l 133 96 m 133 15 q 88 36 108 15 q 67 85 67 57 l 133 85 l 133 15 z "},"f":{"ha":1381,"x_min":67,"x_max":1210,"o":"m 1210 822 l 185 524 l 143 524 l 143 582 l 1103 854 l 1210 854 l 1210 822 m 1210 443 l 143 443 l 143 513 l 1210 513 l 1210 443 m 133 96 l 67 96 l 67 513 l 133 513 l 133 96 m 133 15 q 88 36 108 15 q 67 85 67 57 l 133 85 l 133 15 z "},"g":{"ha":1381,"x_min":67,"x_max":1289,"o":"m 1210 96 l 1169 96 l 143 394 l 143 426 l 253 443 l 143 443 l 143 513 l 1210 513 l 1210 443 l 253 443 l 1210 153 l 1210 96 m 1210 15 l 143 15 l 143 85 l 1210 85 l 1210 15 m 1289 96 l 1222 96 l 1222 426 l 1289 426 l 1289 96 m 1222 443 l 1222 513 q 1269 492 1249 513 q 1289 443 1289 471 l 1222 443 m 1289 85 q 1269 36 1289 57 q 1222 15 1249 15 l 1222 85 l 1289 85 m 133 15 q 88 36 108 15 q 67 85 67 57 l 133 85 l 133 15 z "},"h":{"ha":1381,"x_min":67,"x_max":1289,"o":"m 1222 443 l 1222 513 q 1269 492 1249 513 q 1289 443 1289 471 l 1222 443 m 1289 96 l 1222 96 l 1222 428 l 1289 428 l 1289 96 m 1289 85 q 1269 36 1289 57 q 1222 15 1249 15 l 1222 85 l 1289 85 m 1210 443 l 143 443 l 143 513 l 1210 513 l 1210 443 m 133 867 l 67 867 q 88 914 67 893 q 133 935 108 935 l 133 867 m 133 524 l 67 524 l 67 854 l 133 854 l 133 524 m 133 96 l 67 96 l 67 513 l 133 513 l 133 96 m 133 15 q 88 36 108 15 q 67 85 67 57 l 133 85 l 133 15 z "},"i":{"ha":213,"x_min":67,"x_max":133,"o":"m 133 867 l 67 867 q 88 914 67 893 q 133 935 108 935 l 133 867 m 133 96 l 67 96 l 67 513 l 133 513 l 133 96 m 133 15 q 88 36 108 15 q 67 85 67 57 l 133 85 l 133 15 z "},"j":{"ha":1381,"x_min":67,"x_max":1289,"o":"m 1222 867 l 1222 935 q 1269 914 1249 935 q 1289 867 1289 893 l 1222 867 m 1289 96 l 1222 96 l 1222 513 l 1289 513 l 1289 96 m 1289 85 q 1269 36 1289 57 q 1222 15 1249 15 l 1222 85 l 1289 85 m 1210 15 l 143 15 l 143 85 l 1210 85 l 1210 15 m 133 15 q 88 36 108 15 q 67 85 67 57 l 133 85 l 133 15 z "},"k":{"ha":1381,"x_min":67,"x_max":1210,"o":"m 1210 96 l 1169 96 l 143 394 l 143 426 l 253 443 l 143 443 l 143 513 l 1210 513 l 1210 443 l 253 443 l 1210 153 l 1210 96 m 133 96 l 67 96 l 67 513 l 133 513 l 133 96 m 133 524 l 67 524 l 67 854 l 133 854 l 133 524 m 133 15 q 88 36 108 15 q 67 85 67 57 l 133 85 l 133 15 m 133 867 l 67 867 q 88 914 67 893 q 133 935 108 935 l 133 867 z "},"l":{"ha":214,"x_min":67,"x_max":133,"o":"m 133 867 l 67 867 q 88 914 67 893 q 133 935 108 935 l 133 867 m 133 524 l 67 524 l 67 854 l 133 854 l 133 524 m 133 96 l 67 96 l 67 513 l 133 513 l 133 96 m 133 15 q 88 36 108 15 q 67 85 67 57 l 133 85 l 133 15 z "},"m":{"ha":1754,"x_min":67,"x_max":1667,"o":"m 1600 439 l 1600 507 q 1645 486 1624 507 q 1667 439 1667 465 l 1600 439 m 1667 96 l 1600 96 l 1600 428 l 1667 428 l 1667 96 m 1667 85 q 1646 36 1667 57 q 1600 15 1625 15 l 1600 85 l 1667 85 m 1586 439 l 828 439 l 828 507 l 1586 507 l 1586 439 m 893 96 l 828 96 l 828 439 l 893 428 l 893 96 m 893 85 q 873 36 893 57 q 828 15 853 15 l 828 85 l 893 85 m 814 439 l 143 439 l 143 507 l 814 507 l 814 439 m 133 439 l 67 439 q 88 486 67 465 q 133 507 108 507 l 133 439 m 133 96 l 67 96 l 67 428 l 133 428 l 133 96 m 133 15 q 88 36 108 15 q 67 85 67 57 l 133 85 l 133 15 z "},"n":{"ha":1381,"x_min":67,"x_max":1289,"o":"m 1222 443 l 1222 513 q 1269 492 1249 513 q 1289 443 1289 471 l 1222 443 m 1289 96 l 1222 96 l 1222 431 l 1289 431 l 1289 96 m 1289 85 q 1269 36 1289 57 q 1222 15 1249 15 l 1222 85 l 1289 85 m 1210 443 l 143 443 l 143 513 l 1210 513 l 1210 443 m 133 443 l 67 443 q 88 492 67 471 q 133 513 108 513 l 133 443 m 133 96 l 67 96 l 67 431 l 133 431 l 133 96 m 133 15 q 88 36 108 15 q 67 85 67 57 l 133 85 l 133 15 z "},"o":{"ha":1381,"x_min":67,"x_max":1289,"o":"m 1222 443 l 1222 513 q 1269 492 1249 513 q 1289 443 1289 471 l 1222 443 m 1289 96 l 1222 96 l 1222 431 l 1289 431 l 1289 96 m 1289 85 q 1269 36 1289 57 q 1222 15 1249 15 l 1222 85 l 1289 85 m 1210 443 l 143 443 l 143 513 l 1210 513 l 1210 443 m 1210 15 l 143 15 l 143 85 l 1210 85 l 1210 15 m 133 443 l 67 443 q 88 492 67 471 q 133 513 108 513 l 133 443 m 133 96 l 67 96 l 67 431 l 133 431 l 133 96 m 133 15 q 88 36 108 15 q 67 85 67 57 l 133 85 l 133 15 z "},"p":{"ha":1381,"x_min":69,"x_max":1293,"o":"m 1225 440 l 1225 510 q 1272 489 1250 510 q 1293 440 1293 468 l 1225 440 m 1293 99 l 1225 99 l 1225 428 l 1293 428 l 1293 99 m 1293 88 q 1272 38 1293 58 q 1225 17 1250 17 l 1225 88 l 1293 88 m 1211 440 l 147 440 l 147 510 l 1211 510 l 1211 440 m 1211 17 l 147 17 l 147 88 l 1211 88 l 1211 17 m 136 440 l 69 440 q 90 490 69 469 q 136 510 110 510 l 136 440 m 136 99 l 69 99 l 69 428 l 136 428 l 136 99 m 136 -156 l 69 -156 l 69 88 l 136 88 l 136 -156 m 136 -239 q 90 -217 110 -239 q 69 -168 69 -196 l 136 -168 l 136 -239 z "},"q":{"ha":1381,"x_min":67,"x_max":1289,"o":"m 1222 439 l 1222 507 q 1269 486 1249 507 q 1289 439 1289 465 l 1222 439 m 1289 96 l 1222 96 l 1222 426 l 1289 426 l 1289 96 m 1289 -158 l 1222 -158 l 1222 85 l 1289 85 l 1289 -158 m 1211 439 l 147 439 l 147 507 l 1211 507 l 1211 439 m 1289 -171 q 1267 -219 1289 -199 q 1211 -240 1246 -240 l 1222 -171 l 1289 -171 m 1211 15 l 147 15 l 147 85 l 1211 85 l 1211 15 m 133 439 l 67 439 q 88 486 67 465 q 133 507 108 507 l 133 439 m 133 96 l 67 96 l 67 426 l 133 426 l 133 96 m 133 15 q 88 36 108 15 q 67 85 67 57 l 133 85 l 133 15 z "},"r":{"ha":1381,"x_min":67,"x_max":1285,"o":"m 1218 443 l 1218 513 q 1264 492 1243 513 q 1285 443 1285 471 l 1218 443 m 1210 443 l 143 443 l 143 513 l 1210 513 l 1210 443 m 133 443 l 67 443 q 88 492 67 471 q 133 513 108 513 l 133 443 m 133 96 l 67 96 l 67 431 l 133 431 l 133 96 m 133 15 q 88 36 108 15 q 67 85 67 57 l 133 85 l 133 15 z "},"s":{"ha":1381,"x_min":67,"x_max":1210,"o":"m 1210 96 l 1169 96 l 143 394 l 143 426 l 253 443 l 143 443 l 143 513 l 1210 513 l 1210 443 l 253 443 l 1210 153 l 1210 96 m 1210 15 l 143 15 l 143 85 l 1210 85 l 1210 15 m 133 15 q 88 36 108 15 q 67 85 67 57 l 133 85 l 133 15 z "},"t":{"ha":1381,"x_min":67,"x_max":1210,"o":"m 1210 443 l 143 443 l 143 513 l 1210 513 l 1210 443 m 133 867 l 67 867 q 88 914 67 893 q 133 935 108 935 l 133 867 m 133 524 l 67 524 l 67 854 l 133 854 l 133 524 m 133 96 l 67 96 l 67 513 l 133 513 l 133 96 m 133 15 q 88 36 108 15 q 67 85 67 57 l 133 85 l 133 15 z "},"u":{"ha":1381,"x_min":67,"x_max":1289,"o":"m 1289 96 l 1222 96 l 1222 513 l 1289 513 l 1289 96 m 1289 85 q 1269 36 1289 57 q 1222 15 1249 15 l 1222 85 l 1289 85 m 1210 15 l 143 15 l 143 85 l 1210 85 l 1210 15 m 133 96 l 67 96 l 67 513 l 133 513 l 133 96 m 133 15 q 88 36 108 15 q 67 85 67 57 l 133 85 l 133 15 z "},"v":{"ha":1381,"x_min":67,"x_max":1210,"o":"m 1210 394 l 185 96 l 143 96 l 143 153 l 1103 426 l 1210 426 l 1210 394 m 133 96 l 67 96 l 67 513 l 133 513 l 133 96 z "},"w":{"ha":1749,"x_min":67,"x_max":1667,"o":"m 1600 443 l 1600 513 q 1645 492 1624 513 q 1667 443 1667 471 l 1600 443 m 1667 99 l 1600 99 l 1600 431 l 1667 431 l 1667 99 m 1667 89 q 1646 40 1667 61 q 1600 19 1625 19 l 1600 89 l 1667 89 m 828 443 l 828 513 q 873 492 853 513 q 893 443 893 471 l 828 443 m 1586 19 l 828 19 l 828 89 l 1586 89 l 1586 19 m 893 99 l 828 99 l 828 431 l 893 431 l 893 99 m 133 443 l 67 443 q 88 492 67 471 q 133 513 108 513 l 133 443 m 814 19 l 143 19 l 143 89 l 814 89 l 814 19 m 133 99 l 67 99 l 67 431 l 133 431 l 133 99 m 133 19 q 88 40 108 19 q 67 89 67 61 l 133 89 l 133 19 z "},"x":{"ha":1381,"x_min":143,"x_max":1210,"o":"m 1210 96 l 1169 96 l 676 239 l 185 96 l 143 96 l 143 153 l 563 272 l 143 394 l 143 426 l 253 426 l 676 304 l 1103 426 l 1210 426 l 1210 394 l 790 272 l 1210 153 l 1210 96 z "},"y":{"ha":1381,"x_min":67,"x_max":1289,"o":"m 1289 96 l 1222 96 l 1222 513 l 1289 513 l 1289 96 m 1289 85 q 1269 36 1289 57 q 1222 15 1249 15 l 1222 85 l 1289 85 m 1210 96 l 1169 96 l 143 394 l 143 426 l 253 426 l 1210 153 l 1210 96 m 1210 15 l 143 15 l 143 85 l 1210 85 l 1210 15 m 133 15 q 88 36 108 15 q 67 85 67 57 l 133 85 l 133 15 z "},"z":{"ha":1381,"x_min":143,"x_max":1289,"o":"m 1289 85 q 1269 36 1289 57 q 1222 15 1249 15 l 1222 85 l 1289 85 m 1210 443 l 143 443 l 143 513 l 1210 513 l 1210 443 m 1210 394 l 185 96 l 143 96 l 143 153 l 1103 426 l 1210 426 l 1210 394 m 1210 15 l 143 15 l 143 85 l 1210 85 l 1210 15 z "},"{":{"ha":733,"x_min":67,"x_max":672,"o":"m 672 867 l 143 867 l 143 935 l 672 935 l 672 867 m 133 867 l 67 867 q 88 914 67 893 q 133 935 108 935 l 133 867 m 133 524 l 67 524 l 67 854 l 133 854 l 133 524 m 672 15 l 143 15 l 143 85 l 672 85 l 672 15 m 133 96 l 67 96 l 67 513 l 133 513 l 133 96 m 133 15 q 88 36 108 15 q 67 85 67 57 l 133 85 l 133 15 z "},"|":{"ha":218,"x_min":67,"x_max":133,"o":"m 133 867 l 67 867 q 88 914 67 893 q 133 935 108 935 l 133 867 m 133 524 l 67 524 l 67 854 l 133 854 l 133 524 m 133 96 l 67 96 l 67 513 l 133 513 l 133 96 m 133 15 q 88 36 108 15 q 67 85 67 57 l 133 85 l 133 15 z "},"}":{"ha":733,"x_min":61,"x_max":667,"o":"m 599 867 l 599 935 q 646 914 625 935 q 667 867 667 893 l 599 867 m 667 524 l 599 524 l 599 854 l 667 854 l 667 524 m 589 867 l 61 867 l 61 935 l 589 935 l 589 867 m 667 96 l 599 96 l 599 513 l 667 513 l 667 96 m 667 85 q 646 36 667 57 q 599 15 625 15 l 599 85 l 667 85 m 589 15 l 61 15 l 61 85 l 589 85 l 589 15 z "},"~":{"ha":976,"x_min":75,"x_max":886,"o":"m 886 822 l 579 699 l 539 699 l 539 754 l 779 854 l 886 854 l 886 822 m 514 699 l 446 699 l 446 854 l 514 854 l 514 699 m 424 822 l 117 699 l 75 699 l 75 754 l 317 854 l 424 854 l 424 822 z "},"¡":{"ha":219,"x_min":81,"x_max":147,"o":"m 147 3 q 101 24 122 3 q 81 72 81 44 l 147 72 l 147 3 m 147 85 l 81 85 l 81 414 l 147 414 l 147 85 m 147 854 l 81 854 q 101 902 81 882 q 147 922 122 922 l 147 854 z "},"¢":{"ha":1293,"x_min":39,"x_max":1261,"o":"m 1194 443 l 1194 513 q 1240 492 1219 513 q 1261 443 1261 471 l 1194 443 m 1261 85 q 1240 36 1261 57 q 1194 15 1219 15 l 1194 85 l 1261 85 m 1181 443 l 117 443 l 117 513 l 1181 513 l 1181 443 m 1181 15 l 117 15 l 117 85 l 1181 85 l 1181 15 m 106 443 l 39 443 q 59 492 39 471 q 106 513 79 513 l 106 443 m 106 96 l 39 96 l 39 431 l 106 431 l 106 96 m 106 15 q 59 36 79 15 q 39 85 39 57 l 106 85 l 106 15 m 686 546 l 624 546 l 624 646 l 686 646 l 686 546 m 686 -111 l 624 -111 l 624 -11 l 686 -11 l 686 -111 z "},"¥":{"ha":1471,"x_min":125,"x_max":1349,"o":"m 1268 443 l 804 443 l 804 368 l 1272 368 l 1272 306 l 804 306 l 804 208 l 1276 208 l 1276 150 l 804 150 l 804 96 l 736 96 l 736 150 l 271 150 l 271 208 l 736 208 l 736 306 l 271 306 l 271 368 l 736 368 l 736 443 l 203 443 l 203 513 l 1268 513 l 1268 443 m 1349 524 l 1282 524 l 1282 854 l 1349 854 l 1349 524 m 193 524 l 125 524 l 125 854 l 193 854 l 193 524 m 193 867 l 125 867 q 146 914 125 893 q 193 935 167 935 l 193 867 m 804 85 q 783 36 804 57 q 736 15 763 15 l 736 85 l 804 85 m 193 443 q 147 464 168 443 q 125 513 125 485 l 193 513 l 193 443 m 1282 513 l 1349 513 q 1328 464 1349 485 q 1282 443 1307 443 l 1282 513 m 1282 867 l 1282 935 q 1328 914 1307 935 q 1349 867 1349 893 l 1282 867 z "},"¦":{"ha":211,"x_min":50,"x_max":106,"o":"m 106 507 l 50 507 l 50 1060 l 106 1060 l 106 507 m 106 -331 l 50 -331 l 50 224 l 106 224 l 106 -331 z "},"¨":{"ha":885,"x_min":325,"x_max":628,"o":"m 628 889 q 582 910 603 889 q 561 958 561 931 l 628 958 l 628 889 m 392 889 q 346 910 367 889 q 325 958 325 931 l 392 958 l 392 889 z "},"©":{"ha":969,"x_min":63,"x_max":913,"o":"m 63 424 q 96 589 63 511 q 188 724 129 667 q 323 814 246 781 q 488 847 400 847 q 652 814 575 847 q 788 724 729 781 q 879 589 846 667 q 913 424 913 511 q 879 258 913 336 q 788 123 846 181 q 652 32 729 65 q 488 -1 575 -1 q 323 32 400 -1 q 188 123 246 65 q 96 258 129 181 q 63 424 63 336 m 113 422 q 142 275 113 343 q 223 156 172 207 q 342 75 274 104 q 489 46 411 46 q 635 75 567 46 q 756 156 704 104 q 837 275 807 207 q 867 422 867 343 q 837 569 867 500 q 756 689 807 638 q 635 770 704 740 q 489 800 567 800 q 342 770 411 800 q 223 689 274 740 q 142 569 172 638 q 113 422 113 500 m 578 529 q 481 583 538 583 q 396 540 428 583 q 364 417 364 496 q 398 299 364 344 q 483 253 432 253 q 534 265 508 253 q 578 300 560 278 l 654 247 q 481 153 596 153 q 396 173 435 153 q 329 228 357 193 q 285 312 301 264 q 269 417 269 360 q 284 522 269 474 q 326 607 299 571 q 392 663 353 643 q 481 683 432 683 q 657 581 600 683 l 578 529 z "},"«":{"ha":515,"x_min":57,"x_max":474,"o":"m 131 461 l 271 388 l 271 296 l 57 414 l 57 504 l 271 628 l 271 533 l 131 461 m 335 461 l 474 388 l 474 296 l 260 414 l 260 504 l 474 628 l 474 533 l 335 461 z "},"¬":{"ha":815,"x_min":18,"x_max":744,"o":"m 744 351 l 690 351 l 690 594 l 18 594 l 18 656 l 744 656 l 744 351 z "},"®":{"ha":825,"x_min":72,"x_max":763,"o":"m 413 800 q 297 777 347 800 q 210 717 246 754 q 155 634 174 681 q 136 539 136 588 q 155 443 136 490 q 210 359 174 396 q 297 299 246 322 q 413 276 347 276 q 526 297 472 276 q 620 352 581 317 q 683 435 660 388 q 707 539 707 483 q 685 634 707 588 q 624 717 663 681 q 531 777 585 754 q 413 800 476 800 m 414 217 q 276 243 339 217 q 168 314 214 269 q 97 417 122 358 q 72 539 72 475 q 97 664 72 606 q 168 767 122 722 q 276 837 214 811 q 414 863 339 863 q 553 838 489 863 q 663 769 617 813 q 736 666 710 725 q 763 539 763 607 q 735 417 763 475 q 662 314 708 358 q 551 243 615 269 q 414 217 488 217 m 376 639 l 376 560 l 433 560 q 471 597 471 560 q 433 639 471 639 l 376 639 m 413 488 l 376 488 l 376 358 l 307 358 l 307 708 l 432 708 q 510 680 481 708 q 540 597 540 651 q 527 540 540 563 q 483 499 514 518 l 546 358 l 472 358 l 413 488 z "},"°":{"ha":538,"x_min":35,"x_max":447,"o":"m 447 804 q 431 715 447 757 q 387 642 415 674 q 321 593 358 611 q 242 575 283 575 q 161 593 199 575 q 95 642 124 611 q 51 714 67 672 q 35 804 35 756 q 51 894 35 853 q 94 967 67 936 q 160 1017 122 999 q 242 1035 197 1035 q 322 1016 285 1035 q 388 966 360 997 q 431 893 415 935 q 447 804 447 851 m 392 806 q 380 869 392 839 q 347 923 368 900 q 299 959 326 946 q 242 972 272 972 q 183 959 210 972 q 135 923 156 946 q 103 870 115 900 q 92 806 92 840 q 103 740 92 769 q 135 687 115 710 q 183 651 156 664 q 242 639 210 639 q 299 652 272 639 q 347 688 326 665 q 380 742 368 711 q 392 806 392 772 z "},"±":{"ha":739,"x_min":-19,"x_max":706,"o":"m 706 106 l -19 106 l -19 165 l 315 165 l 315 478 l -19 478 l -19 539 l 315 539 l 315 908 l 368 908 l 368 539 l 704 539 l 704 478 l 368 478 l 368 165 l 706 165 l 706 106 z "},"´":{"ha":781,"x_min":371,"x_max":547,"o":"m 547 1038 l 438 890 l 371 890 l 481 1038 l 547 1038 z "},"¸":{"ha":275,"x_min":-7,"x_max":257,"o":"m 257 -206 l 190 -206 l 190 -22 l 257 -22 l 257 -206 m 257 -217 q 237 -265 257 -244 q 190 -286 217 -286 l 190 -217 l 257 -217 m 178 -286 l 69 -286 l 69 -217 l 178 -217 l 178 -286 m 60 -286 q 14 -265 35 -286 q -7 -217 -7 -244 l 60 -217 l 60 -286 z "},"º":{"ha":538,"x_min":35,"x_max":447,"o":"m 447 804 q 431 715 447 757 q 387 642 415 674 q 321 593 358 611 q 242 575 283 575 q 161 593 199 575 q 95 642 124 611 q 51 714 67 672 q 35 804 35 756 q 51 894 35 853 q 94 967 67 936 q 160 1017 122 999 q 242 1035 197 1035 q 322 1016 285 1035 q 388 966 360 997 q 431 893 415 935 q 447 804 447 851 m 392 806 q 380 869 392 839 q 347 923 368 900 q 299 959 326 946 q 242 972 272 972 q 183 959 210 972 q 135 923 156 946 q 103 870 115 900 q 92 806 92 840 q 103 740 92 769 q 135 687 115 710 q 183 651 156 664 q 242 639 210 639 q 299 652 272 639 q 347 688 326 665 q 380 742 368 711 q 392 806 392 772 z "},"»":{"ha":531,"x_min":72,"x_max":489,"o":"m 415 464 l 275 536 l 275 628 l 489 510 l 489 419 l 275 296 l 275 392 l 415 464 m 213 464 l 72 536 l 72 628 l 286 510 l 286 419 l 72 296 l 72 392 l 213 464 z "},"¿":{"ha":1340,"x_min":39,"x_max":1263,"o":"m 106 71 l 106 1 q 60 22 81 1 q 39 71 39 43 l 106 71 m 39 413 l 106 413 l 106 82 l 39 82 l 39 413 m 39 425 q 59 473 39 453 q 106 493 79 493 l 106 425 l 39 425 m 119 71 l 1185 71 l 1185 1 l 119 1 l 119 71 m 119 493 l 1185 493 l 1185 425 l 119 425 l 119 493 m 1194 71 l 1263 71 q 1242 22 1263 43 q 1194 1 1221 1 l 1194 71 m 1194 493 l 1263 493 q 1242 445 1263 465 q 1194 425 1221 425 l 1194 493 m 1194 840 l 1263 840 l 1263 510 l 1194 510 l 1194 840 m 1194 921 q 1241 901 1219 921 q 1263 853 1263 881 l 1194 853 l 1194 921 z "},"À":{"ha":1381,"x_min":63,"x_max":1285,"o":"m 63 15 m 1218 867 l 1218 935 q 1265 914 1244 935 q 1285 867 1285 893 l 1218 867 m 1285 524 l 1218 524 l 1218 854 l 1285 854 l 1285 524 m 1285 96 l 1218 96 l 1218 513 l 1285 513 l 1285 96 m 1206 867 l 139 867 l 139 935 l 1206 935 l 1206 867 m 1285 85 q 1263 36 1285 57 q 1206 15 1242 15 l 1218 85 l 1285 85 m 1206 443 l 139 443 l 139 513 l 1206 513 l 1206 443 m 129 867 l 63 867 q 83 914 63 893 q 129 935 104 935 l 129 867 m 129 524 l 63 524 l 63 854 l 129 854 l 129 524 m 129 96 l 63 96 l 63 513 l 129 513 l 129 96 m 129 15 q 83 36 104 15 q 63 85 63 57 l 129 85 l 129 15 m 671 1106 l 606 1106 l 496 1253 l 561 1253 l 671 1106 z "},"Á":{"ha":1381,"x_min":63,"x_max":1285,"o":"m 63 15 m 1218 867 l 1218 935 q 1265 914 1244 935 q 1285 867 1285 893 l 1218 867 m 1285 524 l 1218 524 l 1218 854 l 1285 854 l 1285 524 m 1285 96 l 1218 96 l 1218 513 l 1285 513 l 1285 96 m 1206 867 l 139 867 l 139 935 l 1206 935 l 1206 867 m 1285 85 q 1263 36 1285 57 q 1206 15 1242 15 l 1218 85 l 1285 85 m 1206 443 l 139 443 l 139 513 l 1206 513 l 1206 443 m 129 867 l 63 867 q 83 914 63 893 q 129 935 104 935 l 129 867 m 129 524 l 63 524 l 63 854 l 129 854 l 129 524 m 129 96 l 63 96 l 63 513 l 129 513 l 129 96 m 129 15 q 83 36 104 15 q 63 85 63 57 l 129 85 l 129 15 m 788 1254 l 678 1107 l 611 1107 l 721 1254 l 788 1254 z "},"Â":{"ha":1381,"x_min":63,"x_max":1285,"o":"m 63 15 m 1218 867 l 1218 935 q 1265 914 1244 935 q 1285 867 1285 893 l 1218 867 m 1285 524 l 1218 524 l 1218 854 l 1285 854 l 1285 524 m 1285 96 l 1218 96 l 1218 513 l 1285 513 l 1285 96 m 1206 867 l 139 867 l 139 935 l 1206 935 l 1206 867 m 1285 85 q 1263 36 1285 57 q 1206 15 1242 15 l 1218 85 l 1285 85 m 1206 443 l 139 443 l 139 513 l 1206 513 l 1206 443 m 129 867 l 63 867 q 83 914 63 893 q 129 935 104 935 l 129 867 m 129 524 l 63 524 l 63 854 l 129 854 l 129 524 m 129 96 l 63 96 l 63 513 l 129 513 l 129 96 m 129 15 q 83 36 104 15 q 63 85 63 57 l 129 85 l 129 15 m 849 1065 l 799 1065 l 657 1194 l 518 1065 l 469 1065 l 596 1236 l 719 1236 l 849 1065 z "},"Ã":{"ha":1381,"x_min":63,"x_max":1285,"o":"m 63 15 m 1218 867 l 1218 935 q 1265 914 1244 935 q 1285 867 1285 893 l 1218 867 m 1285 524 l 1218 524 l 1218 854 l 1285 854 l 1285 524 m 1285 96 l 1218 96 l 1218 513 l 1285 513 l 1285 96 m 1206 867 l 139 867 l 139 935 l 1206 935 l 1206 867 m 1285 85 q 1263 36 1285 57 q 1206 15 1242 15 l 1218 85 l 1285 85 m 1206 443 l 139 443 l 139 513 l 1206 513 l 1206 443 m 129 867 l 63 867 q 83 914 63 893 q 129 935 104 935 l 129 867 m 129 524 l 63 524 l 63 854 l 129 854 l 129 524 m 129 96 l 63 96 l 63 513 l 129 513 l 129 96 m 129 15 q 83 36 104 15 q 63 85 63 57 l 129 85 l 129 15 m 828 1149 l 463 1149 l 463 1092 l 426 1092 l 426 1207 l 794 1207 l 794 1268 l 828 1268 l 828 1149 z "},"Ä":{"ha":1381,"x_min":63,"x_max":1285,"o":"m 63 15 m 1218 867 l 1218 935 q 1265 914 1244 935 q 1285 867 1285 893 l 1218 867 m 1285 524 l 1218 524 l 1218 854 l 1285 854 l 1285 524 m 1285 96 l 1218 96 l 1218 513 l 1285 513 l 1285 96 m 1206 867 l 139 867 l 139 935 l 1206 935 l 1206 867 m 1285 85 q 1263 36 1285 57 q 1206 15 1242 15 l 1218 85 l 1285 85 m 1206 443 l 139 443 l 139 513 l 1206 513 l 1206 443 m 129 867 l 63 867 q 83 914 63 893 q 129 935 104 935 l 129 867 m 129 524 l 63 524 l 63 854 l 129 854 l 129 524 m 129 96 l 63 96 l 63 513 l 129 513 l 129 96 m 129 15 q 83 36 104 15 q 63 85 63 57 l 129 85 l 129 15 m 790 1143 q 744 1164 765 1143 q 724 1213 724 1185 l 790 1213 l 790 1143 m 554 1143 q 508 1164 529 1143 q 488 1213 488 1185 l 554 1213 l 554 1143 z "},"Å":{"ha":1381,"x_min":63,"x_max":1285,"o":"m 63 15 m 1218 867 l 1218 935 q 1265 914 1244 935 q 1285 867 1285 893 l 1218 867 m 1285 524 l 1218 524 l 1218 854 l 1285 854 l 1285 524 m 1285 96 l 1218 96 l 1218 513 l 1285 513 l 1285 96 m 1206 867 l 139 867 l 139 935 l 1206 935 l 1206 867 m 1285 85 q 1263 36 1285 57 q 1206 15 1242 15 l 1218 85 l 1285 85 m 1206 443 l 139 443 l 139 513 l 1206 513 l 1206 443 m 129 867 l 63 867 q 83 914 63 893 q 129 935 104 935 l 129 867 m 129 524 l 63 524 l 63 854 l 129 854 l 129 524 m 129 96 l 63 96 l 63 513 l 129 513 l 129 96 m 129 15 q 83 36 104 15 q 63 85 63 57 l 129 85 l 129 15 m 811 1168 q 801 1113 811 1139 q 774 1067 792 1086 q 733 1036 757 1047 q 683 1025 710 1025 q 633 1036 657 1025 q 592 1067 610 1047 q 563 1113 574 1086 q 553 1168 553 1139 q 590 1269 553 1228 q 683 1311 628 1311 q 733 1300 710 1311 q 774 1269 757 1289 q 801 1224 792 1250 q 811 1168 811 1197 m 764 1168 q 740 1233 764 1207 q 683 1260 717 1260 q 625 1233 649 1260 q 601 1168 601 1207 q 625 1103 601 1131 q 683 1076 649 1076 q 740 1103 717 1076 q 764 1168 764 1131 z "},"Æ":{"ha":1968,"x_min":47,"x_max":1881,"o":"m 1800 15 l 1814 85 l 1881 85 q 1858 36 1881 57 q 1800 15 1836 15 l 1010 15 l 1010 85 l 1800 85 l 1800 15 m 1800 443 l 1010 443 l 1010 513 l 1800 513 l 1800 443 m 915 443 l 125 443 l 125 513 l 915 513 l 915 443 m 1800 867 l 1010 867 l 1010 935 l 1800 935 l 1800 867 m 915 867 l 125 867 l 125 935 l 915 935 l 915 867 m 999 96 l 928 96 l 928 513 l 999 513 l 999 96 m 114 96 l 47 96 l 47 513 l 114 513 l 114 96 m 999 524 l 928 524 l 928 854 l 999 854 l 999 524 m 114 524 l 47 524 l 47 854 l 114 854 l 114 524 m 999 15 l 928 15 l 928 85 l 999 85 l 999 15 m 999 867 l 928 867 l 928 935 l 999 935 l 999 867 m 114 15 q 68 36 89 15 q 47 85 47 57 l 114 85 l 114 15 m 114 867 l 47 867 q 68 914 47 893 q 114 935 89 935 l 114 867 m 1814 867 l 1814 935 q 1859 914 1838 935 q 1881 867 1881 893 l 1814 867 z "},"Ç":{"ha":1371,"x_min":67,"x_max":1289,"o":"m 67 0 m 1210 867 l 143 867 l 143 935 l 1210 935 l 1210 867 m 133 96 l 67 96 l 67 513 l 133 513 l 133 96 m 133 524 l 67 524 l 67 854 l 133 854 l 133 524 m 1222 867 l 1222 935 q 1269 914 1249 935 q 1289 867 1289 893 l 1222 867 m 133 867 l 67 867 q 88 914 67 893 q 133 935 108 935 l 133 867 m 1210 15 l 143 15 l 143 85 l 1210 85 l 1210 15 m 1289 85 q 1272 36 1289 57 q 1222 15 1254 15 l 1222 85 l 1289 85 m 133 15 q 88 36 108 15 q 67 85 67 57 l 133 85 l 133 15 m 821 -175 l 754 -175 l 754 8 l 821 8 l 821 -175 m 821 -186 q 801 -235 821 -214 q 754 -256 781 -256 l 754 -186 l 821 -186 m 742 -256 l 633 -256 l 633 -186 l 742 -186 l 742 -256 m 624 -256 q 578 -235 599 -256 q 557 -186 557 -214 l 624 -186 l 624 -256 z "},"È":{"ha":1381,"x_min":72,"x_max":1294,"o":"m 72 15 m 1215 443 l 149 443 l 149 513 l 1215 513 l 1215 443 m 1215 867 l 149 867 l 149 935 l 1215 935 l 1215 867 m 139 96 l 72 96 l 72 513 l 139 513 l 139 96 m 139 524 l 72 524 l 72 854 l 139 854 l 139 524 m 1228 867 l 1228 935 q 1274 914 1254 935 q 1294 867 1294 893 l 1228 867 m 139 867 l 72 867 q 93 914 72 893 q 139 935 114 935 l 139 867 m 1215 15 l 149 15 l 149 85 l 1215 85 l 1215 15 m 1294 85 q 1277 36 1294 57 q 1228 15 1260 15 l 1228 85 l 1294 85 m 139 15 q 93 36 114 15 q 72 85 72 57 l 139 85 l 139 15 m 721 1103 l 656 1103 l 546 1250 l 611 1250 l 721 1103 z "},"É":{"ha":1381,"x_min":72,"x_max":1294,"o":"m 72 15 m 1215 443 l 149 443 l 149 513 l 1215 513 l 1215 443 m 1215 867 l 149 867 l 149 935 l 1215 935 l 1215 867 m 139 96 l 72 96 l 72 513 l 139 513 l 139 96 m 139 524 l 72 524 l 72 854 l 139 854 l 139 524 m 1228 867 l 1228 935 q 1274 914 1254 935 q 1294 867 1294 893 l 1228 867 m 139 867 l 72 867 q 93 914 72 893 q 139 935 114 935 l 139 867 m 1215 15 l 149 15 l 149 85 l 1215 85 l 1215 15 m 1294 85 q 1277 36 1294 57 q 1228 15 1260 15 l 1228 85 l 1294 85 m 139 15 q 93 36 114 15 q 72 85 72 57 l 139 85 l 139 15 m 828 1258 l 718 1111 l 651 1111 l 761 1258 l 828 1258 z "},"Ê":{"ha":1381,"x_min":72,"x_max":1294,"o":"m 72 15 m 1215 443 l 149 443 l 149 513 l 1215 513 l 1215 443 m 1215 867 l 149 867 l 149 935 l 1215 935 l 1215 867 m 139 96 l 72 96 l 72 513 l 139 513 l 139 96 m 139 524 l 72 524 l 72 854 l 139 854 l 139 524 m 1228 867 l 1228 935 q 1274 914 1254 935 q 1294 867 1294 893 l 1228 867 m 139 867 l 72 867 q 93 914 72 893 q 139 935 114 935 l 139 867 m 1215 15 l 149 15 l 149 85 l 1215 85 l 1215 15 m 1294 85 q 1277 36 1294 57 q 1228 15 1260 15 l 1228 85 l 1294 85 m 139 15 q 93 36 114 15 q 72 85 72 57 l 139 85 l 139 15 m 883 1068 l 833 1068 l 692 1197 l 553 1068 l 504 1068 l 631 1239 l 754 1239 l 883 1068 z "},"Ë":{"ha":1381,"x_min":72,"x_max":1294,"o":"m 72 15 m 1215 443 l 149 443 l 149 513 l 1215 513 l 1215 443 m 1215 867 l 149 867 l 149 935 l 1215 935 l 1215 867 m 139 96 l 72 96 l 72 513 l 139 513 l 139 96 m 139 524 l 72 524 l 72 854 l 139 854 l 139 524 m 1228 867 l 1228 935 q 1274 914 1254 935 q 1294 867 1294 893 l 1228 867 m 139 867 l 72 867 q 93 914 72 893 q 139 935 114 935 l 139 867 m 1215 15 l 149 15 l 149 85 l 1215 85 l 1215 15 m 1294 85 q 1277 36 1294 57 q 1228 15 1260 15 l 1228 85 l 1294 85 m 139 15 q 93 36 114 15 q 72 85 72 57 l 139 85 l 139 15 m 808 1150 q 763 1171 783 1150 q 742 1219 742 1192 l 808 1219 l 808 1150 m 572 1150 q 526 1171 547 1150 q 506 1219 506 1192 l 572 1219 l 572 1150 z "},"Ì":{"ha":218,"x_min":-15,"x_max":160,"o":"m 0 15 m 138 867 l 71 867 q 92 914 71 893 q 138 935 113 935 l 138 867 m 138 524 l 71 524 l 71 854 l 138 854 l 138 524 m 138 96 l 71 96 l 71 513 l 138 513 l 138 96 m 138 15 q 92 36 113 15 q 71 85 71 57 l 138 85 l 138 15 m 160 1103 l 94 1103 l -15 1250 l 50 1250 l 160 1103 z "},"Í":{"ha":218,"x_min":67,"x_max":253,"o":"m 67 15 m 133 867 l 67 867 q 88 914 67 893 q 133 935 108 935 l 133 867 m 133 524 l 67 524 l 67 854 l 133 854 l 133 524 m 133 96 l 67 96 l 67 513 l 133 513 l 133 96 m 133 15 q 88 36 108 15 q 67 85 67 57 l 133 85 l 133 15 m 253 1258 l 143 1111 l 76 1111 l 186 1258 l 253 1258 z "},"Î":{"ha":218,"x_min":-51,"x_max":328,"o":"m 0 15 m 147 867 l 81 867 q 101 914 81 893 q 147 935 122 935 l 147 867 m 147 524 l 81 524 l 81 854 l 147 854 l 147 524 m 147 96 l 81 96 l 81 513 l 147 513 l 147 96 m 147 15 q 101 36 122 15 q 81 85 81 57 l 147 85 l 147 15 m 328 1074 l 278 1074 l 136 1203 l -3 1074 l -51 1074 l 75 1244 l 199 1244 l 328 1074 z "},"Ï":{"ha":218,"x_min":-31,"x_max":272,"o":"m 0 15 m 143 867 l 76 867 q 97 914 76 893 q 143 935 118 935 l 143 867 m 143 524 l 76 524 l 76 854 l 143 854 l 143 524 m 143 96 l 76 96 l 76 513 l 143 513 l 143 96 m 143 15 q 97 36 118 15 q 76 85 76 57 l 143 85 l 143 15 m 272 1151 q 226 1172 247 1151 q 206 1221 206 1193 l 272 1221 l 272 1151 m 36 1151 q -10 1172 11 1151 q -31 1221 -31 1193 l 36 1221 l 36 1151 z "},"Ð":{"ha":1453,"x_min":46,"x_max":1339,"o":"m 1257 867 l 193 867 l 193 935 l 1257 935 l 1257 867 m 1257 15 l 193 15 l 193 85 l 1257 85 l 1257 15 m 804 519 l 46 519 l 46 589 l 114 589 l 114 854 l 182 854 l 182 589 l 804 589 l 804 519 m 1339 96 l 1271 96 l 1271 519 l 1339 513 l 1339 96 m 182 96 l 114 96 l 114 513 l 182 513 l 182 96 m 1339 524 l 1271 524 l 1271 854 l 1339 854 l 1339 524 m 182 867 l 114 867 l 114 935 l 182 935 l 182 867 m 182 15 l 114 15 l 114 85 l 182 85 l 182 15 m 1339 85 q 1317 36 1339 57 q 1271 15 1296 15 l 1271 85 l 1339 85 m 1271 867 l 1271 935 q 1317 914 1296 935 q 1339 867 1339 893 l 1271 867 z "},"Ñ":{"ha":1390,"x_min":81,"x_max":1303,"o":"m 81 15 m 1236 867 l 1236 935 q 1283 914 1263 935 q 1303 867 1303 893 l 1236 867 m 1303 524 l 1236 524 l 1236 854 l 1303 854 l 1303 524 m 1303 96 l 1236 96 l 1236 513 l 1303 513 l 1303 96 m 1224 867 l 157 867 l 157 935 l 1224 935 l 1224 867 m 1303 85 q 1281 36 1303 57 q 1224 15 1260 15 l 1236 85 l 1303 85 m 147 867 l 81 867 q 101 914 81 893 q 147 935 122 935 l 147 867 m 147 524 l 81 524 l 81 854 l 147 854 l 147 524 m 147 96 l 81 96 l 81 513 l 147 513 l 147 96 m 147 15 q 101 36 122 15 q 81 85 81 57 l 147 85 l 147 15 m 876 1161 l 511 1161 l 511 1104 l 475 1104 l 475 1219 l 843 1219 l 843 1281 l 876 1281 l 876 1161 z "},"Ò":{"ha":1381,"x_min":65,"x_max":1288,"o":"m 65 15 m 1208 867 l 142 867 l 142 935 l 1208 935 l 1208 867 m 132 96 l 65 96 l 65 513 l 132 513 l 132 96 m 1288 96 l 1221 96 l 1221 513 l 1288 513 l 1288 96 m 132 524 l 65 524 l 65 854 l 132 854 l 132 524 m 1288 524 l 1221 524 l 1221 854 l 1288 854 l 1288 524 m 1221 867 l 1221 935 q 1267 914 1247 935 q 1288 867 1288 893 l 1221 867 m 132 867 l 65 867 q 86 914 65 893 q 132 935 107 935 l 132 867 m 1208 15 l 142 15 l 142 85 l 1208 85 l 1208 15 m 1288 85 q 1270 36 1288 57 q 1221 15 1253 15 l 1221 85 l 1288 85 m 132 15 q 86 36 107 15 q 65 85 65 57 l 132 85 l 132 15 m 683 1106 l 618 1106 l 508 1253 l 574 1253 l 683 1106 z "},"Ó":{"ha":1381,"x_min":65,"x_max":1288,"o":"m 65 15 m 1208 867 l 142 867 l 142 935 l 1208 935 l 1208 867 m 132 96 l 65 96 l 65 513 l 132 513 l 132 96 m 1288 96 l 1221 96 l 1221 513 l 1288 513 l 1288 96 m 132 524 l 65 524 l 65 854 l 132 854 l 132 524 m 1288 524 l 1221 524 l 1221 854 l 1288 854 l 1288 524 m 1221 867 l 1221 935 q 1267 914 1247 935 q 1288 867 1288 893 l 1221 867 m 132 867 l 65 867 q 86 914 65 893 q 132 935 107 935 l 132 867 m 1208 15 l 142 15 l 142 85 l 1208 85 l 1208 15 m 1288 85 q 1270 36 1288 57 q 1221 15 1253 15 l 1221 85 l 1288 85 m 132 15 q 86 36 107 15 q 65 85 65 57 l 132 85 l 132 15 m 793 1263 l 683 1115 l 617 1115 l 726 1263 l 793 1263 z "},"Ô":{"ha":1381,"x_min":65,"x_max":1288,"o":"m 65 15 m 1208 867 l 142 867 l 142 935 l 1208 935 l 1208 867 m 132 96 l 65 96 l 65 513 l 132 513 l 132 96 m 1288 96 l 1221 96 l 1221 513 l 1288 513 l 1288 96 m 132 524 l 65 524 l 65 854 l 132 854 l 132 524 m 1288 524 l 1221 524 l 1221 854 l 1288 854 l 1288 524 m 1221 867 l 1221 935 q 1267 914 1247 935 q 1288 867 1288 893 l 1221 867 m 132 867 l 65 867 q 86 914 65 893 q 132 935 107 935 l 132 867 m 1208 15 l 142 15 l 142 85 l 1208 85 l 1208 15 m 1288 85 q 1270 36 1288 57 q 1221 15 1253 15 l 1221 85 l 1288 85 m 132 15 q 86 36 107 15 q 65 85 65 57 l 132 85 l 132 15 m 854 1065 l 804 1065 l 663 1194 l 524 1065 l 475 1065 l 601 1236 l 725 1236 l 854 1065 z "},"Õ":{"ha":1381,"x_min":65,"x_max":1288,"o":"m 65 15 m 1208 867 l 142 867 l 142 935 l 1208 935 l 1208 867 m 132 96 l 65 96 l 65 513 l 132 513 l 132 96 m 1288 96 l 1221 96 l 1221 513 l 1288 513 l 1288 96 m 132 524 l 65 524 l 65 854 l 132 854 l 132 524 m 1288 524 l 1221 524 l 1221 854 l 1288 854 l 1288 524 m 1221 867 l 1221 935 q 1267 914 1247 935 q 1288 867 1288 893 l 1221 867 m 132 867 l 65 867 q 86 914 65 893 q 132 935 107 935 l 132 867 m 1208 15 l 142 15 l 142 85 l 1208 85 l 1208 15 m 1288 85 q 1270 36 1288 57 q 1221 15 1253 15 l 1221 85 l 1288 85 m 132 15 q 86 36 107 15 q 65 85 65 57 l 132 85 l 132 15 m 813 1160 l 447 1160 l 447 1103 l 411 1103 l 411 1218 l 779 1218 l 779 1279 l 813 1279 l 813 1160 z "},"Ö":{"ha":1381,"x_min":65,"x_max":1288,"o":"m 65 15 m 1208 867 l 142 867 l 142 935 l 1208 935 l 1208 867 m 132 96 l 65 96 l 65 513 l 132 513 l 132 96 m 1288 96 l 1221 96 l 1221 513 l 1288 513 l 1288 96 m 132 524 l 65 524 l 65 854 l 132 854 l 132 524 m 1288 524 l 1221 524 l 1221 854 l 1288 854 l 1288 524 m 1221 867 l 1221 935 q 1267 914 1247 935 q 1288 867 1288 893 l 1221 867 m 132 867 l 65 867 q 86 914 65 893 q 132 935 107 935 l 132 867 m 1208 15 l 142 15 l 142 85 l 1208 85 l 1208 15 m 1288 85 q 1270 36 1288 57 q 1221 15 1253 15 l 1221 85 l 1288 85 m 132 15 q 86 36 107 15 q 65 85 65 57 l 132 85 l 132 15 m 839 1151 q 793 1172 814 1151 q 772 1221 772 1193 l 839 1221 l 839 1151 m 603 1151 q 557 1172 578 1151 q 536 1221 536 1193 l 603 1221 l 603 1151 z "},"Ø":{"ha":1358,"x_min":85,"x_max":1307,"o":"m 85 15 m 1228 867 l 161 867 l 161 935 l 1228 935 l 1228 867 m 151 96 l 85 96 l 85 513 l 151 513 l 151 96 m 1307 96 l 1240 96 l 1240 513 l 1307 513 l 1307 96 m 151 524 l 85 524 l 85 854 l 151 854 l 151 524 m 1307 524 l 1240 524 l 1240 854 l 1307 854 l 1307 524 m 1240 867 l 1240 935 q 1287 914 1267 935 q 1307 867 1307 893 l 1240 867 m 151 867 l 85 867 q 106 914 85 893 q 151 935 126 935 l 151 867 m 1228 15 l 161 15 l 161 85 l 1228 85 l 1228 15 m 1307 85 q 1290 36 1307 57 q 1240 15 1272 15 l 1240 85 l 1307 85 m 151 15 q 106 36 126 15 q 85 85 85 57 l 151 85 l 151 15 m 1228 822 l 203 524 l 161 524 l 161 582 l 1121 854 l 1228 854 l 1228 822 z "},"Ù":{"ha":1381,"x_min":63,"x_max":1285,"o":"m 63 15 m 1218 867 l 1218 935 q 1265 914 1244 935 q 1285 867 1285 893 l 1218 867 m 1285 524 l 1218 524 l 1218 854 l 1285 854 l 1285 524 m 1285 96 l 1218 96 l 1218 513 l 1285 513 l 1285 96 m 129 867 l 63 867 q 83 914 63 893 q 129 935 104 935 l 129 867 m 129 524 l 63 524 l 63 854 l 129 854 l 129 524 m 129 96 l 63 96 l 63 513 l 129 513 l 129 96 m 1206 15 l 139 15 l 139 85 l 1206 85 l 1206 15 m 1285 85 q 1267 36 1285 57 q 1218 15 1250 15 l 1218 85 l 1285 85 m 129 15 q 83 36 104 15 q 63 85 63 57 l 129 85 l 129 15 m 681 1111 l 615 1111 l 506 1258 l 571 1258 l 681 1111 z "},"Ú":{"ha":1381,"x_min":63,"x_max":1285,"o":"m 63 15 m 1218 867 l 1218 935 q 1265 914 1244 935 q 1285 867 1285 893 l 1218 867 m 1285 524 l 1218 524 l 1218 854 l 1285 854 l 1285 524 m 1285 96 l 1218 96 l 1218 513 l 1285 513 l 1285 96 m 129 867 l 63 867 q 83 914 63 893 q 129 935 104 935 l 129 867 m 129 524 l 63 524 l 63 854 l 129 854 l 129 524 m 129 96 l 63 96 l 63 513 l 129 513 l 129 96 m 1206 15 l 139 15 l 139 85 l 1206 85 l 1206 15 m 1285 85 q 1267 36 1285 57 q 1218 15 1250 15 l 1218 85 l 1285 85 m 129 15 q 83 36 104 15 q 63 85 63 57 l 129 85 l 129 15 m 810 1254 l 700 1107 l 633 1107 l 743 1254 l 810 1254 z "},"Û":{"ha":1381,"x_min":63,"x_max":1285,"o":"m 63 15 m 1218 867 l 1218 935 q 1265 914 1244 935 q 1285 867 1285 893 l 1218 867 m 1285 524 l 1218 524 l 1218 854 l 1285 854 l 1285 524 m 1285 96 l 1218 96 l 1218 513 l 1285 513 l 1285 96 m 129 867 l 63 867 q 83 914 63 893 q 129 935 104 935 l 129 867 m 129 524 l 63 524 l 63 854 l 129 854 l 129 524 m 129 96 l 63 96 l 63 513 l 129 513 l 129 96 m 1206 15 l 139 15 l 139 85 l 1206 85 l 1206 15 m 1285 85 q 1267 36 1285 57 q 1218 15 1250 15 l 1218 85 l 1285 85 m 129 15 q 83 36 104 15 q 63 85 63 57 l 129 85 l 129 15 m 854 1065 l 804 1065 l 663 1194 l 524 1065 l 475 1065 l 601 1236 l 725 1236 l 854 1065 z "},"Ü":{"ha":1381,"x_min":63,"x_max":1285,"o":"m 63 15 m 1218 867 l 1218 935 q 1265 914 1244 935 q 1285 867 1285 893 l 1218 867 m 1285 524 l 1218 524 l 1218 854 l 1285 854 l 1285 524 m 1285 96 l 1218 96 l 1218 513 l 1285 513 l 1285 96 m 129 867 l 63 867 q 83 914 63 893 q 129 935 104 935 l 129 867 m 129 524 l 63 524 l 63 854 l 129 854 l 129 524 m 129 96 l 63 96 l 63 513 l 129 513 l 129 96 m 1206 15 l 139 15 l 139 85 l 1206 85 l 1206 15 m 1285 85 q 1267 36 1285 57 q 1218 15 1250 15 l 1218 85 l 1285 85 m 129 15 q 83 36 104 15 q 63 85 63 57 l 129 85 l 129 15 m 831 1132 q 785 1153 806 1132 q 764 1201 764 1174 l 831 1201 l 831 1132 m 594 1132 q 549 1153 569 1132 q 528 1201 528 1174 l 594 1201 l 594 1132 z "},"Ý":{"ha":1346,"x_min":64,"x_max":1286,"o":"m 64 15 m 1219 867 l 1219 935 q 1266 914 1246 935 q 1286 867 1286 893 l 1219 867 m 1286 524 l 1219 524 l 1219 854 l 1286 854 l 1286 524 m 1286 96 l 1219 96 l 1219 513 l 1286 513 l 1286 96 m 1286 85 q 1266 36 1286 57 q 1219 15 1246 15 l 1219 85 l 1286 85 m 1207 443 l 140 443 l 140 513 l 1207 513 l 1207 443 m 131 867 l 64 867 q 85 914 64 893 q 131 935 106 935 l 131 867 m 131 524 l 64 524 l 64 854 l 131 854 l 131 524 m 131 443 q 85 464 106 443 q 64 513 64 485 l 131 513 l 131 443 m 828 1261 l 718 1114 l 651 1114 l 761 1261 l 828 1261 z "},"Þ":{"ha":1381,"x_min":67,"x_max":1289,"o":"m 1222 674 l 1222 742 q 1269 721 1249 742 q 1289 674 1289 700 l 1222 674 m 1289 329 l 1222 329 l 1222 660 l 1289 660 l 1289 329 m 1289 318 q 1269 269 1289 290 q 1222 249 1249 249 l 1222 318 l 1289 318 m 1210 674 l 143 674 l 143 742 l 1210 742 l 1210 674 m 1210 249 l 143 249 l 143 318 l 1210 318 l 1210 249 m 133 867 l 67 867 q 88 914 67 893 q 133 935 108 935 l 133 867 m 133 524 l 67 524 l 67 854 l 133 854 l 133 524 m 133 96 l 67 96 l 67 513 l 133 513 l 133 96 m 133 15 q 88 36 108 15 q 67 85 67 57 l 133 85 l 133 15 z "},"ß":{"ha":1276,"x_min":67,"x_max":1206,"o":"m 549 867 l 549 935 q 595 914 575 935 q 615 867 615 893 l 549 867 m 615 524 l 549 524 l 549 854 l 615 854 l 615 524 m 1206 96 l 1139 96 l 1139 513 l 1206 513 l 1206 96 m 536 867 l 143 867 l 143 935 l 536 935 l 536 867 m 1206 85 q 1185 36 1206 57 q 1139 15 1164 15 l 1139 85 l 1206 85 m 1126 443 l 550 443 l 550 513 l 1126 513 l 1126 443 m 133 867 l 67 867 q 88 914 67 893 q 133 935 108 935 l 133 867 m 1126 15 l 281 15 l 281 85 l 1126 85 l 1126 15 m 133 524 l 67 524 l 67 854 l 133 854 l 133 524 m 133 96 l 67 96 l 67 513 l 133 513 l 133 96 m 133 15 q 88 36 108 15 q 67 85 67 57 l 133 85 l 133 15 z "},"à":{"ha":1381,"x_min":143,"x_max":1289,"o":"m 143 15 m 1289 96 l 1222 96 l 1222 513 l 1289 513 l 1289 96 m 1289 85 q 1269 36 1289 57 q 1222 15 1249 15 l 1222 85 l 1289 85 m 1210 443 l 143 443 l 143 513 l 1210 513 l 1210 443 m 1210 394 l 143 99 l 143 168 l 1103 426 l 1210 426 l 1210 394 m 1210 15 l 143 15 l 143 85 l 1210 85 l 1210 15 m 726 658 l 661 658 l 551 806 l 617 806 l 726 658 z "},"á":{"ha":1381,"x_min":143,"x_max":1289,"o":"m 143 15 m 1289 96 l 1222 96 l 1222 513 l 1289 513 l 1289 96 m 1289 85 q 1269 36 1289 57 q 1222 15 1249 15 l 1222 85 l 1289 85 m 1210 443 l 143 443 l 143 513 l 1210 513 l 1210 443 m 1210 394 l 143 99 l 143 168 l 1103 426 l 1210 426 l 1210 394 m 1210 15 l 143 15 l 143 85 l 1210 85 l 1210 15 m 858 807 l 749 660 l 682 660 l 792 807 l 858 807 z "},"â":{"ha":1381,"x_min":143,"x_max":1289,"o":"m 143 15 m 1289 96 l 1222 96 l 1222 513 l 1289 513 l 1289 96 m 1289 85 q 1269 36 1289 57 q 1222 15 1249 15 l 1222 85 l 1289 85 m 1210 443 l 143 443 l 143 513 l 1210 513 l 1210 443 m 1210 394 l 143 99 l 143 168 l 1103 426 l 1210 426 l 1210 394 m 1210 15 l 143 15 l 143 85 l 1210 85 l 1210 15 m 907 661 l 857 661 l 715 790 l 576 661 l 528 661 l 654 832 l 778 832 l 907 661 z "},"ã":{"ha":1381,"x_min":143,"x_max":1289,"o":"m 143 15 m 1289 96 l 1222 96 l 1222 513 l 1289 513 l 1289 96 m 1289 85 q 1269 36 1289 57 q 1222 15 1249 15 l 1222 85 l 1289 85 m 1210 443 l 143 443 l 143 513 l 1210 513 l 1210 443 m 1210 394 l 143 99 l 143 168 l 1103 426 l 1210 426 l 1210 394 m 1210 15 l 143 15 l 143 85 l 1210 85 l 1210 15 m 888 697 l 522 697 l 522 640 l 486 640 l 486 756 l 854 756 l 854 817 l 888 817 l 888 697 z "},"ä":{"ha":1381,"x_min":143,"x_max":1289,"o":"m 143 15 m 1289 96 l 1222 96 l 1222 513 l 1289 513 l 1289 96 m 1289 85 q 1269 36 1289 57 q 1222 15 1249 15 l 1222 85 l 1289 85 m 1210 443 l 143 443 l 143 513 l 1210 513 l 1210 443 m 1210 394 l 143 99 l 143 168 l 1103 426 l 1210 426 l 1210 394 m 1210 15 l 143 15 l 143 85 l 1210 85 l 1210 15 m 875 683 q 829 704 850 683 q 808 753 808 725 l 875 753 l 875 683 m 639 683 q 593 704 614 683 q 572 753 572 725 l 639 753 l 639 683 z "},"å":{"ha":1381,"x_min":143,"x_max":1289,"o":"m 143 15 m 1289 96 l 1222 96 l 1222 513 l 1289 513 l 1289 96 m 1289 85 q 1269 36 1289 57 q 1222 15 1249 15 l 1222 85 l 1289 85 m 1210 443 l 143 443 l 143 513 l 1210 513 l 1210 443 m 1210 394 l 143 99 l 143 168 l 1103 426 l 1210 426 l 1210 394 m 1210 15 l 143 15 l 143 85 l 1210 85 l 1210 15 m 839 783 q 829 728 839 754 q 802 682 819 701 q 761 651 785 663 q 711 640 738 640 q 661 651 685 640 q 619 682 638 663 q 591 728 601 701 q 581 783 581 754 q 618 885 581 843 q 711 926 656 926 q 761 915 738 926 q 802 885 785 904 q 829 839 819 865 q 839 783 839 813 m 792 783 q 768 849 792 822 q 711 875 744 875 q 653 849 676 875 q 629 783 629 822 q 653 719 629 746 q 711 692 676 692 q 768 719 744 692 q 792 783 792 746 z "},"æ":{"ha":2221,"x_min":125,"x_max":2153,"o":"m 2153 85 q 2132 36 2153 57 q 2088 15 2111 15 l 2088 85 l 2153 85 m 2074 443 l 1147 443 l 1147 513 l 2074 513 l 2074 443 m 2074 394 l 1188 96 l 1147 96 l 1147 153 l 1967 426 l 2074 426 l 2074 394 m 2074 15 l 1147 15 l 1147 85 l 2074 85 l 2074 15 m 1133 15 l 1065 15 l 1065 513 l 1133 513 l 1133 15 m 1051 443 l 125 443 l 125 513 l 1051 513 l 1051 443 m 1051 394 l 125 99 l 125 168 l 944 426 l 1051 426 l 1051 394 m 1051 15 l 125 15 l 125 85 l 1051 85 l 1051 15 z "},"ç":{"ha":1350,"x_min":67,"x_max":1289,"o":"m 67 0 m 1222 443 l 1222 513 q 1269 492 1249 513 q 1289 443 1289 471 l 1222 443 m 1289 85 q 1269 36 1289 57 q 1222 15 1249 15 l 1222 85 l 1289 85 m 1210 443 l 143 443 l 143 513 l 1210 513 l 1210 443 m 1210 15 l 143 15 l 143 85 l 1210 85 l 1210 15 m 133 443 l 67 443 q 88 492 67 471 q 133 513 108 513 l 133 443 m 133 96 l 67 96 l 67 431 l 133 431 l 133 96 m 133 15 q 88 36 108 15 q 67 85 67 57 l 133 85 l 133 15 m 792 -206 l 725 -206 l 725 -22 l 792 -22 l 792 -206 m 792 -217 q 772 -265 792 -244 q 725 -286 751 -286 l 725 -217 l 792 -217 m 713 -286 l 604 -286 l 604 -217 l 713 -217 l 713 -286 m 594 -286 q 549 -265 569 -286 q 528 -217 528 -244 l 594 -217 l 594 -286 z "},"è":{"ha":1381,"x_min":67,"x_max":1289,"o":"m 67 15 m 1289 85 q 1269 36 1289 57 q 1222 15 1249 15 l 1222 85 l 1289 85 m 1210 443 l 143 443 l 143 513 l 1210 513 l 1210 443 m 1210 394 l 185 96 l 143 96 l 143 153 l 1103 426 l 1210 426 l 1210 394 m 1210 15 l 143 15 l 143 85 l 1210 85 l 1210 15 m 133 443 l 67 443 q 88 492 67 471 q 133 513 108 513 l 133 443 m 133 96 l 67 96 l 67 426 l 133 426 l 133 96 m 133 15 q 88 36 108 15 q 67 85 67 57 l 133 85 l 133 15 m 690 653 l 625 653 l 515 800 l 581 800 l 690 653 z "},"é":{"ha":1381,"x_min":67,"x_max":1289,"o":"m 67 15 m 1289 85 q 1269 36 1289 57 q 1222 15 1249 15 l 1222 85 l 1289 85 m 1210 443 l 143 443 l 143 513 l 1210 513 l 1210 443 m 1210 394 l 185 96 l 143 96 l 143 153 l 1103 426 l 1210 426 l 1210 394 m 1210 15 l 143 15 l 143 85 l 1210 85 l 1210 15 m 133 443 l 67 443 q 88 492 67 471 q 133 513 108 513 l 133 443 m 133 96 l 67 96 l 67 426 l 133 426 l 133 96 m 133 15 q 88 36 108 15 q 67 85 67 57 l 133 85 l 133 15 m 819 800 l 710 653 l 643 653 l 753 800 l 819 800 z "},"ê":{"ha":1381,"x_min":67,"x_max":1289,"o":"m 67 15 m 1289 85 q 1269 36 1289 57 q 1222 15 1249 15 l 1222 85 l 1289 85 m 1210 443 l 143 443 l 143 513 l 1210 513 l 1210 443 m 1210 394 l 185 96 l 143 96 l 143 153 l 1103 426 l 1210 426 l 1210 394 m 1210 15 l 143 15 l 143 85 l 1210 85 l 1210 15 m 133 443 l 67 443 q 88 492 67 471 q 133 513 108 513 l 133 443 m 133 96 l 67 96 l 67 426 l 133 426 l 133 96 m 133 15 q 88 36 108 15 q 67 85 67 57 l 133 85 l 133 15 m 854 657 l 804 657 l 663 786 l 524 657 l 475 657 l 601 828 l 725 828 l 854 657 z "},"ë":{"ha":1381,"x_min":67,"x_max":1289,"o":"m 67 15 m 1289 85 q 1269 36 1289 57 q 1222 15 1249 15 l 1222 85 l 1289 85 m 1210 443 l 143 443 l 143 513 l 1210 513 l 1210 443 m 1210 394 l 185 96 l 143 96 l 143 153 l 1103 426 l 1210 426 l 1210 394 m 1210 15 l 143 15 l 143 85 l 1210 85 l 1210 15 m 133 443 l 67 443 q 88 492 67 471 q 133 513 108 513 l 133 443 m 133 96 l 67 96 l 67 426 l 133 426 l 133 96 m 133 15 q 88 36 108 15 q 67 85 67 57 l 133 85 l 133 15 m 813 689 q 767 710 788 689 q 746 758 746 731 l 813 758 l 813 689 m 576 689 q 531 710 551 689 q 510 758 510 731 l 576 758 l 576 689 z "},"ì":{"ha":213,"x_min":-60,"x_max":133,"o":"m 0 15 m 133 96 l 67 96 l 67 513 l 133 513 l 133 96 m 133 15 q 88 36 108 15 q 67 85 67 57 l 133 85 l 133 15 m 115 653 l 50 653 l -60 800 l 6 800 l 115 653 z "},"í":{"ha":213,"x_min":65,"x_max":275,"o":"m 65 15 m 132 96 l 65 96 l 65 513 l 132 513 l 132 96 m 132 15 q 86 36 107 15 q 65 85 65 57 l 132 85 l 132 15 m 275 796 l 165 649 l 99 649 l 208 796 l 275 796 z "},"î":{"ha":213,"x_min":-79,"x_max":300,"o":"m 0 15 m 136 96 l 69 96 l 69 513 l 136 513 l 136 96 m 136 15 q 90 36 111 15 q 69 85 69 57 l 136 85 l 136 15 m 300 631 l 250 631 l 108 760 l -31 631 l -79 631 l 47 801 l 171 801 l 300 631 z "},"ï":{"ha":213,"x_min":-46,"x_max":257,"o":"m 0 15 m 133 96 l 67 96 l 67 513 l 133 513 l 133 96 m 133 15 q 88 36 108 15 q 67 85 67 57 l 133 85 l 133 15 m 257 693 q 211 714 232 693 q 190 763 190 735 l 257 763 l 257 693 m 21 693 q -25 714 -4 693 q -46 763 -46 735 l 21 763 l 21 693 z "},"ð":{"ha":1381,"x_min":65,"x_max":1288,"o":"m 1222 85 l 1288 85 q 1267 36 1288 57 q 1222 15 1247 15 l 1222 85 m 1222 513 l 1288 513 l 1288 96 l 1222 96 l 1222 513 m 1222 854 l 1288 854 l 1288 524 l 1222 524 l 1222 854 m 146 85 l 1211 85 l 1222 15 l 146 15 l 146 85 m 1222 935 q 1267 914 1247 935 q 1288 867 1288 893 l 1222 867 l 1222 935 m 146 513 l 1211 513 l 1211 443 l 146 443 l 146 513 m 133 85 l 133 15 q 86 36 107 15 q 65 85 65 57 l 133 85 m 146 935 l 1211 935 l 1211 867 l 146 867 l 146 935 m 65 431 l 133 431 l 146 96 l 65 96 l 65 431 m 65 443 q 86 492 65 471 q 133 513 107 513 l 133 443 l 65 443 m 65 867 q 86 914 65 893 q 133 935 107 935 l 133 867 l 65 867 z "},"ñ":{"ha":1350,"x_min":60,"x_max":1282,"o":"m 60 15 m 1215 443 l 1215 513 q 1262 492 1242 513 q 1282 443 1282 471 l 1215 443 m 1282 96 l 1215 96 l 1215 431 l 1282 431 l 1282 96 m 1282 85 q 1262 36 1282 57 q 1215 15 1242 15 l 1215 85 l 1282 85 m 1203 443 l 136 443 l 136 513 l 1203 513 l 1203 443 m 126 443 l 60 443 q 81 492 60 471 q 126 513 101 513 l 126 443 m 126 96 l 60 96 l 60 431 l 126 431 l 126 96 m 126 15 q 81 36 101 15 q 60 85 60 57 l 126 85 l 126 15 m 844 726 l 479 726 l 479 669 l 443 669 l 443 785 l 811 785 l 811 846 l 844 846 l 844 726 z "},"ò":{"ha":1381,"x_min":67,"x_max":1289,"o":"m 67 15 m 1222 443 l 1222 513 q 1269 492 1249 513 q 1289 443 1289 471 l 1222 443 m 1289 96 l 1222 96 l 1222 431 l 1289 431 l 1289 96 m 1289 85 q 1269 36 1289 57 q 1222 15 1249 15 l 1222 85 l 1289 85 m 1210 443 l 143 443 l 143 513 l 1210 513 l 1210 443 m 1210 15 l 143 15 l 143 85 l 1210 85 l 1210 15 m 133 443 l 67 443 q 88 492 67 471 q 133 513 108 513 l 133 443 m 133 96 l 67 96 l 67 431 l 133 431 l 133 96 m 133 15 q 88 36 108 15 q 67 85 67 57 l 133 85 l 133 15 m 682 653 l 617 653 l 507 800 l 572 800 l 682 653 z "},"ó":{"ha":1381,"x_min":67,"x_max":1289,"o":"m 67 15 m 1222 443 l 1222 513 q 1269 492 1249 513 q 1289 443 1289 471 l 1222 443 m 1289 96 l 1222 96 l 1222 431 l 1289 431 l 1289 96 m 1289 85 q 1269 36 1289 57 q 1222 15 1249 15 l 1222 85 l 1289 85 m 1210 443 l 143 443 l 143 513 l 1210 513 l 1210 443 m 1210 15 l 143 15 l 143 85 l 1210 85 l 1210 15 m 133 443 l 67 443 q 88 492 67 471 q 133 513 108 513 l 133 443 m 133 96 l 67 96 l 67 431 l 133 431 l 133 96 m 133 15 q 88 36 108 15 q 67 85 67 57 l 133 85 l 133 15 m 806 800 l 696 653 l 629 653 l 739 800 l 806 800 z "},"ô":{"ha":1381,"x_min":67,"x_max":1289,"o":"m 67 15 m 1222 443 l 1222 513 q 1269 492 1249 513 q 1289 443 1289 471 l 1222 443 m 1289 96 l 1222 96 l 1222 431 l 1289 431 l 1289 96 m 1289 85 q 1269 36 1289 57 q 1222 15 1249 15 l 1222 85 l 1289 85 m 1210 443 l 143 443 l 143 513 l 1210 513 l 1210 443 m 1210 15 l 143 15 l 143 85 l 1210 85 l 1210 15 m 133 443 l 67 443 q 88 492 67 471 q 133 513 108 513 l 133 443 m 133 96 l 67 96 l 67 431 l 133 431 l 133 96 m 133 15 q 88 36 108 15 q 67 85 67 57 l 133 85 l 133 15 m 849 656 l 799 656 l 657 785 l 518 656 l 469 656 l 596 826 l 719 826 l 849 656 z "},"õ":{"ha":1381,"x_min":67,"x_max":1289,"o":"m 67 15 m 1222 443 l 1222 513 q 1269 492 1249 513 q 1289 443 1289 471 l 1222 443 m 1289 96 l 1222 96 l 1222 431 l 1289 431 l 1289 96 m 1289 85 q 1269 36 1289 57 q 1222 15 1249 15 l 1222 85 l 1289 85 m 1210 443 l 143 443 l 143 513 l 1210 513 l 1210 443 m 1210 15 l 143 15 l 143 85 l 1210 85 l 1210 15 m 133 443 l 67 443 q 88 492 67 471 q 133 513 108 513 l 133 443 m 133 96 l 67 96 l 67 431 l 133 431 l 133 96 m 133 15 q 88 36 108 15 q 67 85 67 57 l 133 85 l 133 15 m 853 713 l 488 713 l 488 656 l 451 656 l 451 771 l 819 771 l 819 832 l 853 832 l 853 713 z "},"ö":{"ha":1381,"x_min":67,"x_max":1289,"o":"m 67 15 m 1222 443 l 1222 513 q 1269 492 1249 513 q 1289 443 1289 471 l 1222 443 m 1289 96 l 1222 96 l 1222 431 l 1289 431 l 1289 96 m 1289 85 q 1269 36 1289 57 q 1222 15 1249 15 l 1222 85 l 1289 85 m 1210 443 l 143 443 l 143 513 l 1210 513 l 1210 443 m 1210 15 l 143 15 l 143 85 l 1210 85 l 1210 15 m 133 443 l 67 443 q 88 492 67 471 q 133 513 108 513 l 133 443 m 133 96 l 67 96 l 67 431 l 133 431 l 133 96 m 133 15 q 88 36 108 15 q 67 85 67 57 l 133 85 l 133 15 m 832 689 q 786 710 807 689 q 765 758 765 731 l 832 758 l 832 689 m 596 689 q 550 710 571 689 q 529 758 529 731 l 596 758 l 596 689 z "},"ø":{"ha":1381,"x_min":88,"x_max":1310,"o":"m 1242 443 l 1242 513 q 1289 492 1268 513 q 1310 443 1310 471 l 1242 443 m 1310 96 l 1242 96 l 1242 431 l 1310 431 l 1310 96 m 1310 85 q 1289 36 1310 57 q 1242 15 1268 15 l 1242 85 l 1310 85 m 1231 443 l 164 443 l 164 513 l 1231 513 l 1231 443 m 1231 15 l 164 15 l 164 85 l 1231 85 l 1231 15 m 153 443 l 88 443 q 108 492 88 471 q 153 513 128 513 l 153 443 m 153 96 l 88 96 l 88 431 l 153 431 l 153 96 m 153 15 q 108 36 128 15 q 88 85 88 57 l 153 85 l 153 15 m 1228 393 l 210 97 l 169 97 l 169 154 l 1119 424 l 1228 424 l 1228 393 z "},"ù":{"ha":1381,"x_min":58,"x_max":1281,"o":"m 58 15 m 1281 96 l 1214 96 l 1214 513 l 1281 513 l 1281 96 m 1281 85 q 1260 36 1281 57 q 1214 15 1240 15 l 1214 85 l 1281 85 m 1201 15 l 135 15 l 135 85 l 1201 85 l 1201 15 m 125 96 l 58 96 l 58 513 l 125 513 l 125 96 m 125 15 q 79 36 100 15 q 58 85 58 57 l 125 85 l 125 15 m 701 653 l 636 653 l 526 800 l 592 800 l 701 653 z "},"ú":{"ha":1381,"x_min":58,"x_max":1281,"o":"m 58 15 m 1281 96 l 1214 96 l 1214 513 l 1281 513 l 1281 96 m 1281 85 q 1260 36 1281 57 q 1214 15 1240 15 l 1214 85 l 1281 85 m 1201 15 l 135 15 l 135 85 l 1201 85 l 1201 15 m 125 96 l 58 96 l 58 513 l 125 513 l 125 96 m 125 15 q 79 36 100 15 q 58 85 58 57 l 125 85 l 125 15 m 828 806 l 718 658 l 651 658 l 761 806 l 828 806 z "},"û":{"ha":1381,"x_min":58,"x_max":1281,"o":"m 58 15 m 1281 96 l 1214 96 l 1214 513 l 1281 513 l 1281 96 m 1281 85 q 1260 36 1281 57 q 1214 15 1240 15 l 1214 85 l 1281 85 m 1201 15 l 135 15 l 135 85 l 1201 85 l 1201 15 m 125 96 l 58 96 l 58 513 l 125 513 l 125 96 m 125 15 q 79 36 100 15 q 58 85 58 57 l 125 85 l 125 15 m 825 661 l 775 661 l 633 790 l 494 661 l 446 661 l 572 832 l 696 832 l 825 661 z "},"ü":{"ha":1381,"x_min":58,"x_max":1281,"o":"m 58 15 m 1281 96 l 1214 96 l 1214 513 l 1281 513 l 1281 96 m 1281 85 q 1260 36 1281 57 q 1214 15 1240 15 l 1214 85 l 1281 85 m 1201 15 l 135 15 l 135 85 l 1201 85 l 1201 15 m 125 96 l 58 96 l 58 513 l 125 513 l 125 96 m 125 15 q 79 36 100 15 q 58 85 58 57 l 125 85 l 125 15 m 807 689 q 761 710 782 689 q 740 758 740 731 l 807 758 l 807 689 m 571 689 q 525 710 546 689 q 504 758 504 731 l 571 758 l 571 689 z "},"ý":{"ha":1354,"x_min":63,"x_max":1285,"o":"m 63 15 m 1285 96 l 1218 96 l 1218 513 l 1285 513 l 1285 96 m 1285 85 q 1265 36 1285 57 q 1218 15 1244 15 l 1218 85 l 1285 85 m 1206 96 l 1165 96 l 139 394 l 139 426 l 249 426 l 1206 153 l 1206 96 m 1206 15 l 139 15 l 139 85 l 1206 85 l 1206 15 m 129 15 q 83 36 104 15 q 63 85 63 57 l 129 85 l 129 15 m 878 806 l 768 658 l 701 658 l 811 806 l 878 806 z "},"þ":{"ha":1381,"x_min":67,"x_max":1289,"o":"m 1222 443 l 1222 513 q 1269 492 1249 513 q 1289 443 1289 471 l 1222 443 m 1289 96 l 1222 96 l 1222 428 l 1289 428 l 1289 96 m 1289 85 q 1269 36 1289 57 q 1222 15 1249 15 l 1222 85 l 1289 85 m 1210 443 l 143 443 l 143 513 l 1210 513 l 1210 443 m 133 867 l 67 867 q 88 914 67 893 q 133 935 108 935 l 133 867 m 1210 15 l 143 15 l 143 85 l 1210 85 l 1210 15 m 133 524 l 67 524 l 67 854 l 133 854 l 133 524 m 133 96 l 67 96 l 67 513 l 133 513 l 133 96 m 133 -156 l 67 -156 l 67 88 l 133 88 l 133 -156 m 133 -239 q 87 -217 107 -239 q 67 -168 67 -196 l 133 -168 l 133 -239 z "},"ÿ":{"ha":1381,"x_min":63,"x_max":1285,"o":"m 63 15 m 1285 96 l 1218 96 l 1218 513 l 1285 513 l 1285 96 m 1285 85 q 1265 36 1285 57 q 1218 15 1244 15 l 1218 85 l 1285 85 m 1206 96 l 1165 96 l 139 394 l 139 426 l 249 426 l 1206 153 l 1206 96 m 1206 15 l 139 15 l 139 85 l 1206 85 l 1206 15 m 129 15 q 83 36 104 15 q 63 85 63 57 l 129 85 l 129 15 m 804 689 q 758 710 779 689 q 738 758 738 731 l 804 758 l 804 689 m 568 689 q 522 710 543 689 q 501 758 501 731 l 568 758 l 568 689 z "},"ı":{"ha":213,"x_min":67,"x_max":133,"o":"m 133 96 l 67 96 l 67 513 l 133 513 l 133 96 m 133 15 q 88 36 108 15 q 67 85 67 57 l 133 85 l 133 15 z "},"Ł":{"ha":1381,"x_min":67,"x_max":1289,"o":"m 650 661 l 192 524 l 150 524 l 150 582 l 543 693 l 650 693 l 650 661 m 1289 85 q 1269 36 1289 57 q 1222 15 1249 15 l 1222 85 l 1289 85 m 133 867 l 67 867 q 88 914 67 893 q 133 935 108 935 l 133 867 m 1210 15 l 143 15 l 133 85 l 1210 85 l 1210 15 m 133 524 l 67 524 l 67 854 l 133 854 l 133 524 m 133 96 l 67 96 l 67 513 l 133 513 l 133 96 m 133 15 q 88 36 108 15 q 67 85 67 57 l 133 85 l 133 15 z "},"ł":{"ha":574,"x_min":0,"x_max":574,"o":"m 574 588 l 372 524 l 331 524 l 331 582 l 467 619 l 574 619 l 574 588 m 321 867 l 254 867 q 275 914 254 893 q 321 935 296 935 l 321 867 m 321 524 l 254 524 l 254 854 l 321 854 l 321 524 m 321 96 l 254 96 l 254 513 l 321 513 l 321 96 m 321 15 q 275 36 296 15 q 254 85 254 57 l 321 85 l 321 15 m 0 449 l 201 513 l 243 513 l 243 454 l 107 417 l 0 417 l 0 449 z "},"Œ":{"ha":1965,"x_min":61,"x_max":1892,"o":"m 1813 15 l 1824 85 l 1892 85 q 1869 36 1892 57 q 1813 15 1847 15 l 1022 15 l 1022 85 l 1813 85 l 1813 15 m 1010 15 l 947 15 l 947 935 l 1010 935 l 1010 15 m 1813 443 l 1022 443 l 1022 513 l 1813 513 l 1813 443 m 929 15 l 140 15 l 140 85 l 929 85 l 929 15 m 1813 867 l 1022 867 l 1022 935 l 1813 935 l 1813 867 m 929 867 l 140 867 l 140 935 l 929 935 l 929 867 m 128 96 l 61 96 l 61 513 l 128 513 l 128 96 m 128 524 l 61 524 l 61 854 l 128 854 l 128 524 m 128 15 q 82 36 103 15 q 61 85 61 57 l 128 85 l 128 15 m 1824 867 l 1824 935 q 1871 914 1850 935 q 1892 867 1892 893 l 1824 867 m 128 867 l 61 867 q 82 914 61 893 q 128 935 103 935 l 128 867 z "},"œ":{"ha":1986,"x_min":61,"x_max":1890,"o":"m 1890 85 q 1869 36 1890 57 q 1822 15 1849 15 l 1822 85 l 1890 85 m 1808 443 l 1021 443 l 1021 513 l 1808 513 l 1808 443 m 1808 394 l 1060 96 l 1021 96 l 1021 153 l 1701 426 l 1808 426 l 1808 394 m 1808 15 l 1021 15 l 1021 85 l 1808 85 l 1808 15 m 1007 15 l 942 15 l 942 513 l 1007 513 l 1007 15 m 928 443 l 139 443 l 139 513 l 928 513 l 928 443 m 928 15 l 139 15 l 139 85 l 928 85 l 928 15 m 128 443 l 61 443 q 82 492 61 471 q 128 513 103 513 l 128 443 m 128 96 l 61 96 l 61 431 l 128 431 l 128 96 m 128 15 q 82 36 103 15 q 61 85 61 57 l 128 85 l 128 15 z "},"Š":{"ha":1389,"x_min":67,"x_max":1289,"o":"m 67 15 m 1210 443 l 143 443 l 143 513 l 1210 513 l 1210 443 m 1210 867 l 143 867 l 143 935 l 1210 935 l 1210 867 m 1289 96 l 1222 96 l 1222 428 l 1289 428 l 1289 96 m 133 524 l 67 524 l 67 854 l 133 854 l 133 524 m 1222 443 l 1222 513 q 1269 492 1249 513 q 1289 443 1289 471 l 1222 443 m 133 443 q 88 464 108 443 q 67 513 67 485 l 133 513 l 133 443 m 1222 867 l 1222 935 q 1269 914 1249 935 q 1289 867 1289 893 l 1222 867 m 133 867 l 67 867 q 88 914 67 893 q 133 935 108 935 l 133 867 m 1210 15 l 143 15 l 143 85 l 1210 85 l 1210 15 m 1289 85 q 1272 36 1289 57 q 1222 15 1254 15 l 1222 85 l 1289 85 m 133 15 q 88 36 108 15 q 67 85 67 57 l 133 85 l 133 15 m 874 1236 l 747 1065 l 624 1065 l 496 1236 l 518 1236 l 688 1154 l 854 1236 l 874 1236 z "},"š":{"ha":1292,"x_min":67,"x_max":1210,"o":"m 67 15 m 1210 96 l 1169 96 l 143 394 l 143 426 l 253 443 l 143 443 l 143 513 l 1210 513 l 1210 443 l 253 443 l 1210 153 l 1210 96 m 1210 15 l 143 15 l 143 85 l 1210 85 l 1210 15 m 133 15 q 88 36 108 15 q 67 85 67 57 l 133 85 l 133 15 m 872 822 l 746 651 l 622 651 l 494 822 l 517 822 l 686 740 l 853 822 l 872 822 z "},"Ÿ":{"ha":1381,"x_min":65,"x_max":1288,"o":"m 65 15 m 1221 867 l 1221 935 q 1267 914 1247 935 q 1288 867 1288 893 l 1221 867 m 1288 524 l 1221 524 l 1221 854 l 1288 854 l 1288 524 m 1288 96 l 1221 96 l 1221 513 l 1288 513 l 1288 96 m 1288 85 q 1267 36 1288 57 q 1221 15 1247 15 l 1221 85 l 1288 85 m 1208 443 l 142 443 l 142 513 l 1208 513 l 1208 443 m 132 867 l 65 867 q 86 914 65 893 q 132 935 107 935 l 132 867 m 132 524 l 65 524 l 65 854 l 132 854 l 132 524 m 132 443 q 86 464 107 443 q 65 513 65 485 l 132 513 l 132 443 m 829 1165 q 783 1186 804 1165 q 763 1235 763 1207 l 829 1235 l 829 1165 m 593 1165 q 547 1186 568 1165 q 526 1235 526 1207 l 593 1235 l 593 1165 z "},"Ž":{"ha":1381,"x_min":67,"x_max":1289,"o":"m 67 15 m 1210 867 l 143 867 l 143 935 l 1210 935 l 1210 867 m 1210 822 l 143 504 l 143 575 l 1103 854 l 1210 854 l 1210 822 m 133 96 l 67 96 l 67 492 l 133 492 l 133 96 m 133 504 l 67 504 q 88 554 67 533 q 133 575 108 575 l 133 504 m 133 867 l 67 867 q 88 914 67 893 q 133 935 108 935 l 133 867 m 1210 15 l 143 15 l 143 85 l 1210 85 l 1210 15 m 1289 85 q 1272 36 1289 57 q 1222 15 1254 15 l 1222 85 l 1289 85 m 133 15 q 88 36 108 15 q 67 85 67 57 l 133 85 l 133 15 m 874 1236 l 747 1065 l 624 1065 l 496 1236 l 518 1236 l 688 1154 l 854 1236 l 874 1236 z "},"ž":{"ha":1381,"x_min":143,"x_max":1289,"o":"m 143 15 m 1289 85 q 1269 36 1289 57 q 1222 15 1249 15 l 1222 85 l 1289 85 m 1210 443 l 143 443 l 143 513 l 1210 513 l 1210 443 m 1210 394 l 185 96 l 143 96 l 143 153 l 1103 426 l 1210 426 l 1210 394 m 1210 15 l 143 15 l 143 85 l 1210 85 l 1210 15 m 872 822 l 746 651 l 622 651 l 494 822 l 517 822 l 686 740 l 853 822 l 872 822 z "},"ˆ":{"ha":944,"x_min":288,"x_max":667,"o":"m 667 847 l 617 847 l 475 976 l 336 847 l 288 847 l 414 1018 l 538 1018 l 667 847 z "},"ˇ":{"ha":838,"x_min":281,"x_max":658,"o":"m 658 1049 l 532 878 l 408 878 l 281 1049 l 303 1049 l 472 967 l 639 1049 l 658 1049 z "},"˚":{"ha":961,"x_min":419,"x_max":678,"o":"m 678 965 q 668 910 678 936 q 641 864 658 883 q 600 833 624 844 q 550 822 576 822 q 500 833 524 822 q 458 864 476 844 q 430 910 440 883 q 419 965 419 936 q 457 1067 419 1025 q 550 1108 494 1108 q 600 1097 576 1108 q 641 1067 624 1086 q 668 1021 658 1047 q 678 965 678 994 m 631 965 q 607 1031 631 1004 q 550 1057 583 1057 q 492 1031 515 1057 q 468 965 468 1004 q 492 901 468 928 q 550 874 515 874 q 607 901 583 874 q 631 965 631 928 z "},"˜":{"ha":906,"x_min":240,"x_max":642,"o":"m 642 907 l 276 907 l 276 850 l 240 850 l 240 965 l 608 965 l 608 1026 l 642 1026 l 642 907 z "},"‘":{"ha":168,"x_min":163,"x_max":308,"o":"m 293 704 l 226 704 l 163 1035 l 229 1035 l 293 704 m 308 624 q 258 644 283 624 q 226 692 232 665 l 294 692 l 308 624 z "},"’":{"ha":156,"x_min":169,"x_max":304,"o":"m 226 624 q 186 641 203 624 q 169 682 169 658 q 170 687 169 685 q 171 692 171 689 l 240 692 l 226 624 m 240 704 l 172 704 l 236 1035 l 304 1035 l 240 704 z "},"‚":{"ha":156,"x_min":14,"x_max":147,"o":"m 69 -222 q 30 -206 46 -222 q 14 -164 14 -189 q 15 -153 14 -157 l 82 -153 l 69 -222 m 85 -140 l 17 -140 l 79 189 l 147 189 l 85 -140 z "},"“":{"ha":271,"x_min":171,"x_max":428,"o":"m 294 1053 l 363 1053 l 425 722 l 357 722 l 294 1053 m 171 1053 l 239 1053 l 301 722 l 233 722 l 171 1053 m 236 711 l 304 711 l 304 701 q 288 659 304 676 q 249 642 272 642 l 236 711 m 361 711 l 428 711 l 428 701 q 412 659 428 676 q 372 642 396 642 l 361 711 z "},"”":{"ha":303,"x_min":171,"x_max":453,"o":"m 389 722 l 322 722 l 385 1053 l 453 1053 l 389 722 m 254 722 l 185 722 l 249 1053 l 317 1053 l 254 722 m 386 711 q 358 663 382 683 q 307 642 333 642 l 319 711 l 386 711 m 250 711 q 222 663 246 683 q 171 642 197 642 l 183 711 l 250 711 z "},"„":{"ha":303,"x_min":13,"x_max":294,"o":"m 231 -133 l 164 -133 l 226 197 l 294 197 l 231 -133 m 94 -133 l 28 -133 l 90 197 l 157 197 l 94 -133 m 228 -146 q 199 -193 225 -172 q 149 -214 174 -214 l 161 -146 l 228 -146 m 92 -146 q 64 -193 89 -172 q 13 -214 39 -214 l 25 -146 l 92 -146 z "},"•":{"ha":729,"x_min":189,"x_max":517,"o":"m 189 488 q 202 558 189 525 q 238 616 215 592 q 290 655 260 640 q 353 669 319 669 q 416 655 386 669 q 468 616 446 640 q 503 558 490 592 q 517 488 517 525 q 503 417 517 450 q 468 358 490 383 q 416 319 446 333 q 353 306 386 306 q 290 319 319 306 q 238 358 260 333 q 202 417 215 383 q 189 488 189 450 z "},"…":{"ha":575,"x_min":67,"x_max":507,"o":"m 67 15 m 133 15 q 88 36 108 15 q 67 85 67 57 l 133 85 l 133 15 m 319 15 q 274 36 294 15 q 253 85 253 57 l 319 85 l 319 15 m 507 15 q 461 36 482 15 q 440 85 440 57 l 507 85 l 507 15 z "},"‹":{"ha":317,"x_min":57,"x_max":271,"o":"m 131 461 l 271 388 l 271 296 l 57 414 l 57 504 l 271 628 l 271 533 l 131 461 z "},"›":{"ha":317,"x_min":57,"x_max":271,"o":"m 197 464 l 57 536 l 57 628 l 271 510 l 271 419 l 57 296 l 57 392 l 197 464 z "},"€":{"ha":1381,"x_min":67,"x_max":1289,"o":"m 1210 15 l 1222 85 l 1289 85 q 1267 36 1289 57 q 1210 15 1246 15 l 143 15 l 133 85 l 1210 85 l 1210 15 m 1210 867 l 143 867 l 143 935 l 1210 935 l 1210 867 m 1207 528 l 143 528 l 143 596 l 1207 596 l 1207 528 m 979 356 l 143 356 l 143 426 l 979 426 l 979 356 m 133 96 l 67 96 l 67 513 l 133 513 l 133 96 m 133 524 l 67 524 l 67 854 l 133 854 l 133 524 m 133 15 q 88 36 108 15 q 67 85 67 57 l 133 85 l 133 15 m 1222 867 l 1222 935 q 1269 914 1249 935 q 1289 867 1289 893 l 1222 867 m 133 867 l 67 867 q 88 914 67 893 q 133 935 108 935 l 133 867 z "},"™":{"ha":857,"x_min":65,"x_max":769,"o":"m 264 739 l 264 399 l 174 399 l 174 739 l 65 739 l 65 822 l 369 822 l 369 739 l 264 739 m 685 632 l 593 397 l 492 642 l 492 400 l 408 400 l 408 824 l 510 824 l 592 606 l 671 824 l 769 824 l 769 400 l 685 400 l 685 632 z "}}}
